<mxfile host="app.diagrams.net" modified="2021-01-03T23:45:54.489Z" agent="5.0 (X11; Linux x86_64) AppleWebKit/537.36 (KHTML, like Gecko) Chrome/87.0.4280.88 Safari/537.36" etag="TnBAu4mMFDv2zjUsumyC" version="14.1.8" type="github">
  <diagram name="Page-1" id="2ca16b54-16f6-2749-3443-fa8db7711227">
    <mxGraphModel dx="2522" dy="1624" grid="1" gridSize="10" guides="1" tooltips="1" connect="1" arrows="1" fold="1" page="1" pageScale="1" pageWidth="1100" pageHeight="850" background="#ffffff" math="0" shadow="0">
      <root>
        <mxCell id="0" />
        <mxCell id="1" parent="0" />
        <mxCell id="bYb3f7YGl_gzGOZ02LMp-26" value="users" style="shape=table;startSize=30;container=1;collapsible=1;childLayout=tableLayout;fixedRows=1;rowLines=0;fontStyle=1;align=center;resizeLast=1;" vertex="1" parent="1">
          <mxGeometry x="860" y="105" width="180" height="420" as="geometry" />
        </mxCell>
        <mxCell id="bYb3f7YGl_gzGOZ02LMp-27" value="" style="shape=partialRectangle;collapsible=0;dropTarget=0;pointerEvents=0;fillColor=none;top=0;left=0;bottom=1;right=0;points=[[0,0.5],[1,0.5]];portConstraint=eastwest;" vertex="1" parent="bYb3f7YGl_gzGOZ02LMp-26">
          <mxGeometry y="30" width="180" height="30" as="geometry" />
        </mxCell>
        <mxCell id="bYb3f7YGl_gzGOZ02LMp-28" value="PK" style="shape=partialRectangle;connectable=0;fillColor=none;top=0;left=0;bottom=0;right=0;fontStyle=1;overflow=hidden;" vertex="1" parent="bYb3f7YGl_gzGOZ02LMp-27">
          <mxGeometry width="30" height="30" as="geometry" />
        </mxCell>
        <mxCell id="bYb3f7YGl_gzGOZ02LMp-29" value="id" style="shape=partialRectangle;connectable=0;fillColor=none;top=0;left=0;bottom=0;right=0;align=left;spacingLeft=6;fontStyle=5;overflow=hidden;" vertex="1" parent="bYb3f7YGl_gzGOZ02LMp-27">
          <mxGeometry x="30" width="150" height="30" as="geometry" />
        </mxCell>
        <mxCell id="bYb3f7YGl_gzGOZ02LMp-30" value="" style="shape=partialRectangle;collapsible=0;dropTarget=0;pointerEvents=0;fillColor=none;top=0;left=0;bottom=0;right=0;points=[[0,0.5],[1,0.5]];portConstraint=eastwest;" vertex="1" parent="bYb3f7YGl_gzGOZ02LMp-26">
          <mxGeometry y="60" width="180" height="30" as="geometry" />
        </mxCell>
        <mxCell id="bYb3f7YGl_gzGOZ02LMp-31" value="" style="shape=partialRectangle;connectable=0;fillColor=none;top=0;left=0;bottom=0;right=0;editable=1;overflow=hidden;" vertex="1" parent="bYb3f7YGl_gzGOZ02LMp-30">
          <mxGeometry width="30" height="30" as="geometry" />
        </mxCell>
        <mxCell id="bYb3f7YGl_gzGOZ02LMp-32" value="name" style="shape=partialRectangle;connectable=0;fillColor=none;top=0;left=0;bottom=0;right=0;align=left;spacingLeft=6;overflow=hidden;" vertex="1" parent="bYb3f7YGl_gzGOZ02LMp-30">
          <mxGeometry x="30" width="150" height="30" as="geometry" />
        </mxCell>
        <mxCell id="bYb3f7YGl_gzGOZ02LMp-33" value="" style="shape=partialRectangle;collapsible=0;dropTarget=0;pointerEvents=0;fillColor=none;top=0;left=0;bottom=0;right=0;points=[[0,0.5],[1,0.5]];portConstraint=eastwest;" vertex="1" parent="bYb3f7YGl_gzGOZ02LMp-26">
          <mxGeometry y="90" width="180" height="30" as="geometry" />
        </mxCell>
        <mxCell id="bYb3f7YGl_gzGOZ02LMp-34" value="" style="shape=partialRectangle;connectable=0;fillColor=none;top=0;left=0;bottom=0;right=0;editable=1;overflow=hidden;" vertex="1" parent="bYb3f7YGl_gzGOZ02LMp-33">
          <mxGeometry width="30" height="30" as="geometry" />
        </mxCell>
        <mxCell id="bYb3f7YGl_gzGOZ02LMp-35" value="img" style="shape=partialRectangle;connectable=0;fillColor=none;top=0;left=0;bottom=0;right=0;align=left;spacingLeft=6;overflow=hidden;" vertex="1" parent="bYb3f7YGl_gzGOZ02LMp-33">
          <mxGeometry x="30" width="150" height="30" as="geometry" />
        </mxCell>
        <mxCell id="bYb3f7YGl_gzGOZ02LMp-36" value="" style="shape=partialRectangle;collapsible=0;dropTarget=0;pointerEvents=0;fillColor=none;top=0;left=0;bottom=0;right=0;points=[[0,0.5],[1,0.5]];portConstraint=eastwest;" vertex="1" parent="bYb3f7YGl_gzGOZ02LMp-26">
          <mxGeometry y="120" width="180" height="30" as="geometry" />
        </mxCell>
        <mxCell id="bYb3f7YGl_gzGOZ02LMp-37" value="" style="shape=partialRectangle;connectable=0;fillColor=none;top=0;left=0;bottom=0;right=0;editable=1;overflow=hidden;" vertex="1" parent="bYb3f7YGl_gzGOZ02LMp-36">
          <mxGeometry width="30" height="30" as="geometry" />
        </mxCell>
        <mxCell id="bYb3f7YGl_gzGOZ02LMp-38" value="email" style="shape=partialRectangle;connectable=0;fillColor=none;top=0;left=0;bottom=0;right=0;align=left;spacingLeft=6;overflow=hidden;" vertex="1" parent="bYb3f7YGl_gzGOZ02LMp-36">
          <mxGeometry x="30" width="150" height="30" as="geometry" />
        </mxCell>
        <mxCell id="bYb3f7YGl_gzGOZ02LMp-136" value="" style="shape=partialRectangle;collapsible=0;dropTarget=0;pointerEvents=0;fillColor=none;top=0;left=0;bottom=0;right=0;points=[[0,0.5],[1,0.5]];portConstraint=eastwest;" vertex="1" parent="bYb3f7YGl_gzGOZ02LMp-26">
          <mxGeometry y="150" width="180" height="30" as="geometry" />
        </mxCell>
        <mxCell id="bYb3f7YGl_gzGOZ02LMp-137" value="" style="shape=partialRectangle;connectable=0;fillColor=none;top=0;left=0;bottom=0;right=0;editable=1;overflow=hidden;" vertex="1" parent="bYb3f7YGl_gzGOZ02LMp-136">
          <mxGeometry width="30" height="30" as="geometry" />
        </mxCell>
        <mxCell id="bYb3f7YGl_gzGOZ02LMp-138" value="phone" style="shape=partialRectangle;connectable=0;fillColor=none;top=0;left=0;bottom=0;right=0;align=left;spacingLeft=6;overflow=hidden;" vertex="1" parent="bYb3f7YGl_gzGOZ02LMp-136">
          <mxGeometry x="30" width="150" height="30" as="geometry" />
        </mxCell>
        <mxCell id="bYb3f7YGl_gzGOZ02LMp-139" value="" style="shape=partialRectangle;collapsible=0;dropTarget=0;pointerEvents=0;fillColor=none;top=0;left=0;bottom=0;right=0;points=[[0,0.5],[1,0.5]];portConstraint=eastwest;" vertex="1" parent="bYb3f7YGl_gzGOZ02LMp-26">
          <mxGeometry y="180" width="180" height="30" as="geometry" />
        </mxCell>
        <mxCell id="bYb3f7YGl_gzGOZ02LMp-140" value="" style="shape=partialRectangle;connectable=0;fillColor=none;top=0;left=0;bottom=0;right=0;editable=1;overflow=hidden;" vertex="1" parent="bYb3f7YGl_gzGOZ02LMp-139">
          <mxGeometry width="30" height="30" as="geometry" />
        </mxCell>
        <mxCell id="bYb3f7YGl_gzGOZ02LMp-141" value="username" style="shape=partialRectangle;connectable=0;fillColor=none;top=0;left=0;bottom=0;right=0;align=left;spacingLeft=6;overflow=hidden;" vertex="1" parent="bYb3f7YGl_gzGOZ02LMp-139">
          <mxGeometry x="30" width="150" height="30" as="geometry" />
        </mxCell>
        <mxCell id="bYb3f7YGl_gzGOZ02LMp-142" value="" style="shape=partialRectangle;collapsible=0;dropTarget=0;pointerEvents=0;fillColor=none;top=0;left=0;bottom=0;right=0;points=[[0,0.5],[1,0.5]];portConstraint=eastwest;" vertex="1" parent="bYb3f7YGl_gzGOZ02LMp-26">
          <mxGeometry y="210" width="180" height="30" as="geometry" />
        </mxCell>
        <mxCell id="bYb3f7YGl_gzGOZ02LMp-143" value="" style="shape=partialRectangle;connectable=0;fillColor=none;top=0;left=0;bottom=0;right=0;editable=1;overflow=hidden;" vertex="1" parent="bYb3f7YGl_gzGOZ02LMp-142">
          <mxGeometry width="30" height="30" as="geometry" />
        </mxCell>
        <mxCell id="bYb3f7YGl_gzGOZ02LMp-144" value="password" style="shape=partialRectangle;connectable=0;fillColor=none;top=0;left=0;bottom=0;right=0;align=left;spacingLeft=6;overflow=hidden;" vertex="1" parent="bYb3f7YGl_gzGOZ02LMp-142">
          <mxGeometry x="30" width="150" height="30" as="geometry" />
        </mxCell>
        <mxCell id="bYb3f7YGl_gzGOZ02LMp-145" value="" style="shape=partialRectangle;collapsible=0;dropTarget=0;pointerEvents=0;fillColor=none;top=0;left=0;bottom=0;right=0;points=[[0,0.5],[1,0.5]];portConstraint=eastwest;" vertex="1" parent="bYb3f7YGl_gzGOZ02LMp-26">
          <mxGeometry y="240" width="180" height="30" as="geometry" />
        </mxCell>
        <mxCell id="bYb3f7YGl_gzGOZ02LMp-146" value="" style="shape=partialRectangle;connectable=0;fillColor=none;top=0;left=0;bottom=0;right=0;editable=1;overflow=hidden;" vertex="1" parent="bYb3f7YGl_gzGOZ02LMp-145">
          <mxGeometry width="30" height="30" as="geometry" />
        </mxCell>
        <mxCell id="bYb3f7YGl_gzGOZ02LMp-147" value="sex" style="shape=partialRectangle;connectable=0;fillColor=none;top=0;left=0;bottom=0;right=0;align=left;spacingLeft=6;overflow=hidden;" vertex="1" parent="bYb3f7YGl_gzGOZ02LMp-145">
          <mxGeometry x="30" width="150" height="30" as="geometry" />
        </mxCell>
        <mxCell id="bYb3f7YGl_gzGOZ02LMp-148" value="" style="shape=partialRectangle;collapsible=0;dropTarget=0;pointerEvents=0;fillColor=none;top=0;left=0;bottom=0;right=0;points=[[0,0.5],[1,0.5]];portConstraint=eastwest;" vertex="1" parent="bYb3f7YGl_gzGOZ02LMp-26">
          <mxGeometry y="270" width="180" height="30" as="geometry" />
        </mxCell>
        <mxCell id="bYb3f7YGl_gzGOZ02LMp-149" value="" style="shape=partialRectangle;connectable=0;fillColor=none;top=0;left=0;bottom=0;right=0;editable=1;overflow=hidden;" vertex="1" parent="bYb3f7YGl_gzGOZ02LMp-148">
          <mxGeometry width="30" height="30" as="geometry" />
        </mxCell>
        <mxCell id="bYb3f7YGl_gzGOZ02LMp-150" value="address" style="shape=partialRectangle;connectable=0;fillColor=none;top=0;left=0;bottom=0;right=0;align=left;spacingLeft=6;overflow=hidden;" vertex="1" parent="bYb3f7YGl_gzGOZ02LMp-148">
          <mxGeometry x="30" width="150" height="30" as="geometry" />
        </mxCell>
        <mxCell id="bYb3f7YGl_gzGOZ02LMp-151" value="" style="shape=partialRectangle;collapsible=0;dropTarget=0;pointerEvents=0;fillColor=none;top=0;left=0;bottom=0;right=0;points=[[0,0.5],[1,0.5]];portConstraint=eastwest;" vertex="1" parent="bYb3f7YGl_gzGOZ02LMp-26">
          <mxGeometry y="300" width="180" height="30" as="geometry" />
        </mxCell>
        <mxCell id="bYb3f7YGl_gzGOZ02LMp-152" value="" style="shape=partialRectangle;connectable=0;fillColor=none;top=0;left=0;bottom=0;right=0;editable=1;overflow=hidden;" vertex="1" parent="bYb3f7YGl_gzGOZ02LMp-151">
          <mxGeometry width="30" height="30" as="geometry" />
        </mxCell>
        <mxCell id="bYb3f7YGl_gzGOZ02LMp-153" value="status" style="shape=partialRectangle;connectable=0;fillColor=none;top=0;left=0;bottom=0;right=0;align=left;spacingLeft=6;overflow=hidden;" vertex="1" parent="bYb3f7YGl_gzGOZ02LMp-151">
          <mxGeometry x="30" width="150" height="30" as="geometry" />
        </mxCell>
        <mxCell id="bYb3f7YGl_gzGOZ02LMp-154" value="" style="shape=partialRectangle;collapsible=0;dropTarget=0;pointerEvents=0;fillColor=none;top=0;left=0;bottom=0;right=0;points=[[0,0.5],[1,0.5]];portConstraint=eastwest;" vertex="1" parent="bYb3f7YGl_gzGOZ02LMp-26">
          <mxGeometry y="330" width="180" height="30" as="geometry" />
        </mxCell>
        <mxCell id="bYb3f7YGl_gzGOZ02LMp-155" value="" style="shape=partialRectangle;connectable=0;fillColor=none;top=0;left=0;bottom=0;right=0;editable=1;overflow=hidden;" vertex="1" parent="bYb3f7YGl_gzGOZ02LMp-154">
          <mxGeometry width="30" height="30" as="geometry" />
        </mxCell>
        <mxCell id="bYb3f7YGl_gzGOZ02LMp-156" value="remember_toke" style="shape=partialRectangle;connectable=0;fillColor=none;top=0;left=0;bottom=0;right=0;align=left;spacingLeft=6;overflow=hidden;" vertex="1" parent="bYb3f7YGl_gzGOZ02LMp-154">
          <mxGeometry x="30" width="150" height="30" as="geometry" />
        </mxCell>
        <mxCell id="bYb3f7YGl_gzGOZ02LMp-157" value="" style="shape=partialRectangle;collapsible=0;dropTarget=0;pointerEvents=0;fillColor=none;top=0;left=0;bottom=0;right=0;points=[[0,0.5],[1,0.5]];portConstraint=eastwest;" vertex="1" parent="bYb3f7YGl_gzGOZ02LMp-26">
          <mxGeometry y="360" width="180" height="30" as="geometry" />
        </mxCell>
        <mxCell id="bYb3f7YGl_gzGOZ02LMp-158" value="" style="shape=partialRectangle;connectable=0;fillColor=none;top=0;left=0;bottom=0;right=0;editable=1;overflow=hidden;" vertex="1" parent="bYb3f7YGl_gzGOZ02LMp-157">
          <mxGeometry width="30" height="30" as="geometry" />
        </mxCell>
        <mxCell id="bYb3f7YGl_gzGOZ02LMp-159" value="created_at" style="shape=partialRectangle;connectable=0;fillColor=none;top=0;left=0;bottom=0;right=0;align=left;spacingLeft=6;overflow=hidden;" vertex="1" parent="bYb3f7YGl_gzGOZ02LMp-157">
          <mxGeometry x="30" width="150" height="30" as="geometry" />
        </mxCell>
        <mxCell id="bYb3f7YGl_gzGOZ02LMp-197" value="" style="shape=partialRectangle;collapsible=0;dropTarget=0;pointerEvents=0;fillColor=none;top=0;left=0;bottom=0;right=0;points=[[0,0.5],[1,0.5]];portConstraint=eastwest;" vertex="1" parent="bYb3f7YGl_gzGOZ02LMp-26">
          <mxGeometry y="390" width="180" height="30" as="geometry" />
        </mxCell>
        <mxCell id="bYb3f7YGl_gzGOZ02LMp-198" value="" style="shape=partialRectangle;connectable=0;fillColor=none;top=0;left=0;bottom=0;right=0;editable=1;overflow=hidden;" vertex="1" parent="bYb3f7YGl_gzGOZ02LMp-197">
          <mxGeometry width="30" height="30" as="geometry" />
        </mxCell>
        <mxCell id="bYb3f7YGl_gzGOZ02LMp-199" value="updated_at" style="shape=partialRectangle;connectable=0;fillColor=none;top=0;left=0;bottom=0;right=0;align=left;spacingLeft=6;overflow=hidden;" vertex="1" parent="bYb3f7YGl_gzGOZ02LMp-197">
          <mxGeometry x="30" width="150" height="30" as="geometry" />
        </mxCell>
        <mxCell id="bYb3f7YGl_gzGOZ02LMp-81" value="roles" style="shape=table;startSize=30;container=1;collapsible=1;childLayout=tableLayout;fixedRows=1;rowLines=0;fontStyle=1;align=center;resizeLast=1;" vertex="1" parent="1">
          <mxGeometry x="860" y="-220" width="180" height="180" as="geometry" />
        </mxCell>
        <mxCell id="bYb3f7YGl_gzGOZ02LMp-82" value="" style="shape=partialRectangle;collapsible=0;dropTarget=0;pointerEvents=0;fillColor=none;top=0;left=0;bottom=1;right=0;points=[[0,0.5],[1,0.5]];portConstraint=eastwest;" vertex="1" parent="bYb3f7YGl_gzGOZ02LMp-81">
          <mxGeometry y="30" width="180" height="30" as="geometry" />
        </mxCell>
        <mxCell id="bYb3f7YGl_gzGOZ02LMp-83" value="PK" style="shape=partialRectangle;connectable=0;fillColor=none;top=0;left=0;bottom=0;right=0;fontStyle=1;overflow=hidden;" vertex="1" parent="bYb3f7YGl_gzGOZ02LMp-82">
          <mxGeometry width="30" height="30" as="geometry" />
        </mxCell>
        <mxCell id="bYb3f7YGl_gzGOZ02LMp-84" value="id" style="shape=partialRectangle;connectable=0;fillColor=none;top=0;left=0;bottom=0;right=0;align=left;spacingLeft=6;fontStyle=5;overflow=hidden;" vertex="1" parent="bYb3f7YGl_gzGOZ02LMp-82">
          <mxGeometry x="30" width="150" height="30" as="geometry" />
        </mxCell>
        <mxCell id="bYb3f7YGl_gzGOZ02LMp-85" value="" style="shape=partialRectangle;collapsible=0;dropTarget=0;pointerEvents=0;fillColor=none;top=0;left=0;bottom=0;right=0;points=[[0,0.5],[1,0.5]];portConstraint=eastwest;" vertex="1" parent="bYb3f7YGl_gzGOZ02LMp-81">
          <mxGeometry y="60" width="180" height="30" as="geometry" />
        </mxCell>
        <mxCell id="bYb3f7YGl_gzGOZ02LMp-86" value="" style="shape=partialRectangle;connectable=0;fillColor=none;top=0;left=0;bottom=0;right=0;editable=1;overflow=hidden;" vertex="1" parent="bYb3f7YGl_gzGOZ02LMp-85">
          <mxGeometry width="30" height="30" as="geometry" />
        </mxCell>
        <mxCell id="bYb3f7YGl_gzGOZ02LMp-87" value="name" style="shape=partialRectangle;connectable=0;fillColor=none;top=0;left=0;bottom=0;right=0;align=left;spacingLeft=6;overflow=hidden;" vertex="1" parent="bYb3f7YGl_gzGOZ02LMp-85">
          <mxGeometry x="30" width="150" height="30" as="geometry" />
        </mxCell>
        <mxCell id="bYb3f7YGl_gzGOZ02LMp-88" value="" style="shape=partialRectangle;collapsible=0;dropTarget=0;pointerEvents=0;fillColor=none;top=0;left=0;bottom=0;right=0;points=[[0,0.5],[1,0.5]];portConstraint=eastwest;" vertex="1" parent="bYb3f7YGl_gzGOZ02LMp-81">
          <mxGeometry y="90" width="180" height="30" as="geometry" />
        </mxCell>
        <mxCell id="bYb3f7YGl_gzGOZ02LMp-89" value="" style="shape=partialRectangle;connectable=0;fillColor=none;top=0;left=0;bottom=0;right=0;editable=1;overflow=hidden;" vertex="1" parent="bYb3f7YGl_gzGOZ02LMp-88">
          <mxGeometry width="30" height="30" as="geometry" />
        </mxCell>
        <mxCell id="bYb3f7YGl_gzGOZ02LMp-90" value="guard_name" style="shape=partialRectangle;connectable=0;fillColor=none;top=0;left=0;bottom=0;right=0;align=left;spacingLeft=6;overflow=hidden;" vertex="1" parent="bYb3f7YGl_gzGOZ02LMp-88">
          <mxGeometry x="30" width="150" height="30" as="geometry" />
        </mxCell>
        <mxCell id="bYb3f7YGl_gzGOZ02LMp-130" value="" style="shape=partialRectangle;collapsible=0;dropTarget=0;pointerEvents=0;fillColor=none;top=0;left=0;bottom=0;right=0;points=[[0,0.5],[1,0.5]];portConstraint=eastwest;" vertex="1" parent="bYb3f7YGl_gzGOZ02LMp-81">
          <mxGeometry y="120" width="180" height="30" as="geometry" />
        </mxCell>
        <mxCell id="bYb3f7YGl_gzGOZ02LMp-131" value="" style="shape=partialRectangle;connectable=0;fillColor=none;top=0;left=0;bottom=0;right=0;editable=1;overflow=hidden;" vertex="1" parent="bYb3f7YGl_gzGOZ02LMp-130">
          <mxGeometry width="30" height="30" as="geometry" />
        </mxCell>
        <mxCell id="bYb3f7YGl_gzGOZ02LMp-132" value="created_at" style="shape=partialRectangle;connectable=0;fillColor=none;top=0;left=0;bottom=0;right=0;align=left;spacingLeft=6;overflow=hidden;" vertex="1" parent="bYb3f7YGl_gzGOZ02LMp-130">
          <mxGeometry x="30" width="150" height="30" as="geometry" />
        </mxCell>
        <mxCell id="bYb3f7YGl_gzGOZ02LMp-133" value="" style="shape=partialRectangle;collapsible=0;dropTarget=0;pointerEvents=0;fillColor=none;top=0;left=0;bottom=0;right=0;points=[[0,0.5],[1,0.5]];portConstraint=eastwest;" vertex="1" parent="bYb3f7YGl_gzGOZ02LMp-81">
          <mxGeometry y="150" width="180" height="30" as="geometry" />
        </mxCell>
        <mxCell id="bYb3f7YGl_gzGOZ02LMp-134" value="" style="shape=partialRectangle;connectable=0;fillColor=none;top=0;left=0;bottom=0;right=0;editable=1;overflow=hidden;" vertex="1" parent="bYb3f7YGl_gzGOZ02LMp-133">
          <mxGeometry width="30" height="30" as="geometry" />
        </mxCell>
        <mxCell id="bYb3f7YGl_gzGOZ02LMp-135" value="updated_at" style="shape=partialRectangle;connectable=0;fillColor=none;top=0;left=0;bottom=0;right=0;align=left;spacingLeft=6;overflow=hidden;" vertex="1" parent="bYb3f7YGl_gzGOZ02LMp-133">
          <mxGeometry x="30" width="150" height="30" as="geometry" />
        </mxCell>
        <mxCell id="bYb3f7YGl_gzGOZ02LMp-102" value="roles" style="shape=table;startSize=30;container=1;collapsible=1;childLayout=tableLayout;fixedRows=1;rowLines=0;fontStyle=1;align=center;resizeLast=1;" vertex="1" parent="1">
          <mxGeometry x="860" y="-30" width="180" height="120" as="geometry" />
        </mxCell>
        <mxCell id="bYb3f7YGl_gzGOZ02LMp-103" value="" style="shape=partialRectangle;collapsible=0;dropTarget=0;pointerEvents=0;fillColor=none;top=0;left=0;bottom=1;right=0;points=[[0,0.5],[1,0.5]];portConstraint=eastwest;" vertex="1" parent="bYb3f7YGl_gzGOZ02LMp-102">
          <mxGeometry y="30" width="180" height="30" as="geometry" />
        </mxCell>
        <mxCell id="bYb3f7YGl_gzGOZ02LMp-104" value="PK" style="shape=partialRectangle;connectable=0;fillColor=none;top=0;left=0;bottom=0;right=0;fontStyle=1;overflow=hidden;" vertex="1" parent="bYb3f7YGl_gzGOZ02LMp-103">
          <mxGeometry width="30" height="30" as="geometry" />
        </mxCell>
        <mxCell id="bYb3f7YGl_gzGOZ02LMp-105" value="role_id" style="shape=partialRectangle;connectable=0;fillColor=none;top=0;left=0;bottom=0;right=0;align=left;spacingLeft=6;fontStyle=5;overflow=hidden;" vertex="1" parent="bYb3f7YGl_gzGOZ02LMp-103">
          <mxGeometry x="30" width="150" height="30" as="geometry" />
        </mxCell>
        <mxCell id="bYb3f7YGl_gzGOZ02LMp-106" value="" style="shape=partialRectangle;collapsible=0;dropTarget=0;pointerEvents=0;fillColor=none;top=0;left=0;bottom=0;right=0;points=[[0,0.5],[1,0.5]];portConstraint=eastwest;" vertex="1" parent="bYb3f7YGl_gzGOZ02LMp-102">
          <mxGeometry y="60" width="180" height="30" as="geometry" />
        </mxCell>
        <mxCell id="bYb3f7YGl_gzGOZ02LMp-107" value="" style="shape=partialRectangle;connectable=0;fillColor=none;top=0;left=0;bottom=0;right=0;editable=1;overflow=hidden;" vertex="1" parent="bYb3f7YGl_gzGOZ02LMp-106">
          <mxGeometry width="30" height="30" as="geometry" />
        </mxCell>
        <mxCell id="bYb3f7YGl_gzGOZ02LMp-108" value="model_type" style="shape=partialRectangle;connectable=0;fillColor=none;top=0;left=0;bottom=0;right=0;align=left;spacingLeft=6;overflow=hidden;" vertex="1" parent="bYb3f7YGl_gzGOZ02LMp-106">
          <mxGeometry x="30" width="150" height="30" as="geometry" />
        </mxCell>
        <mxCell id="bYb3f7YGl_gzGOZ02LMp-109" value="" style="shape=partialRectangle;collapsible=0;dropTarget=0;pointerEvents=0;fillColor=none;top=0;left=0;bottom=0;right=0;points=[[0,0.5],[1,0.5]];portConstraint=eastwest;" vertex="1" parent="bYb3f7YGl_gzGOZ02LMp-102">
          <mxGeometry y="90" width="180" height="30" as="geometry" />
        </mxCell>
        <mxCell id="bYb3f7YGl_gzGOZ02LMp-110" value="" style="shape=partialRectangle;connectable=0;fillColor=none;top=0;left=0;bottom=0;right=0;editable=1;overflow=hidden;" vertex="1" parent="bYb3f7YGl_gzGOZ02LMp-109">
          <mxGeometry width="30" height="30" as="geometry" />
        </mxCell>
        <mxCell id="bYb3f7YGl_gzGOZ02LMp-111" value="model_id" style="shape=partialRectangle;connectable=0;fillColor=none;top=0;left=0;bottom=0;right=0;align=left;spacingLeft=6;overflow=hidden;" vertex="1" parent="bYb3f7YGl_gzGOZ02LMp-109">
          <mxGeometry x="30" width="150" height="30" as="geometry" />
        </mxCell>
        <mxCell id="bYb3f7YGl_gzGOZ02LMp-115" value="" style="edgeStyle=entityRelationEdgeStyle;fontSize=12;html=1;endArrow=ERmandOne;startArrow=ERmandOne;" edge="1" parent="1" source="bYb3f7YGl_gzGOZ02LMp-103" target="bYb3f7YGl_gzGOZ02LMp-82">
          <mxGeometry width="100" height="100" relative="1" as="geometry">
            <mxPoint x="470" y="550" as="sourcePoint" />
            <mxPoint x="570" y="450" as="targetPoint" />
          </mxGeometry>
        </mxCell>
        <mxCell id="bYb3f7YGl_gzGOZ02LMp-116" value="" style="edgeStyle=entityRelationEdgeStyle;fontSize=12;html=1;endArrow=ERmandOne;startArrow=ERmandOne;" edge="1" parent="1" source="bYb3f7YGl_gzGOZ02LMp-109" target="bYb3f7YGl_gzGOZ02LMp-27">
          <mxGeometry width="100" height="100" relative="1" as="geometry">
            <mxPoint x="470" y="550" as="sourcePoint" />
            <mxPoint x="570" y="450" as="targetPoint" />
          </mxGeometry>
        </mxCell>
        <mxCell id="bYb3f7YGl_gzGOZ02LMp-225" value="promotions" style="shape=table;startSize=30;container=1;collapsible=1;childLayout=tableLayout;fixedRows=1;rowLines=0;fontStyle=1;align=center;resizeLast=1;" vertex="1" parent="1">
          <mxGeometry x="650" y="-220" width="180" height="310" as="geometry" />
        </mxCell>
        <mxCell id="bYb3f7YGl_gzGOZ02LMp-226" value="" style="shape=partialRectangle;collapsible=0;dropTarget=0;pointerEvents=0;fillColor=none;top=0;left=0;bottom=1;right=0;points=[[0,0.5],[1,0.5]];portConstraint=eastwest;" vertex="1" parent="bYb3f7YGl_gzGOZ02LMp-225">
          <mxGeometry y="30" width="180" height="30" as="geometry" />
        </mxCell>
        <mxCell id="bYb3f7YGl_gzGOZ02LMp-227" value="PK" style="shape=partialRectangle;connectable=0;fillColor=none;top=0;left=0;bottom=0;right=0;fontStyle=1;overflow=hidden;" vertex="1" parent="bYb3f7YGl_gzGOZ02LMp-226">
          <mxGeometry width="30" height="30" as="geometry" />
        </mxCell>
        <mxCell id="bYb3f7YGl_gzGOZ02LMp-228" value="id" style="shape=partialRectangle;connectable=0;fillColor=none;top=0;left=0;bottom=0;right=0;align=left;spacingLeft=6;fontStyle=5;overflow=hidden;" vertex="1" parent="bYb3f7YGl_gzGOZ02LMp-226">
          <mxGeometry x="30" width="150" height="30" as="geometry" />
        </mxCell>
        <mxCell id="bYb3f7YGl_gzGOZ02LMp-229" value="" style="shape=partialRectangle;collapsible=0;dropTarget=0;pointerEvents=0;fillColor=none;top=0;left=0;bottom=0;right=0;points=[[0,0.5],[1,0.5]];portConstraint=eastwest;" vertex="1" parent="bYb3f7YGl_gzGOZ02LMp-225">
          <mxGeometry y="60" width="180" height="30" as="geometry" />
        </mxCell>
        <mxCell id="bYb3f7YGl_gzGOZ02LMp-230" value="" style="shape=partialRectangle;connectable=0;fillColor=none;top=0;left=0;bottom=0;right=0;editable=1;overflow=hidden;" vertex="1" parent="bYb3f7YGl_gzGOZ02LMp-229">
          <mxGeometry width="30" height="30" as="geometry" />
        </mxCell>
        <mxCell id="bYb3f7YGl_gzGOZ02LMp-231" value="name" style="shape=partialRectangle;connectable=0;fillColor=none;top=0;left=0;bottom=0;right=0;align=left;spacingLeft=6;overflow=hidden;" vertex="1" parent="bYb3f7YGl_gzGOZ02LMp-229">
          <mxGeometry x="30" width="150" height="30" as="geometry" />
        </mxCell>
        <mxCell id="bYb3f7YGl_gzGOZ02LMp-232" value="" style="shape=partialRectangle;collapsible=0;dropTarget=0;pointerEvents=0;fillColor=none;top=0;left=0;bottom=0;right=0;points=[[0,0.5],[1,0.5]];portConstraint=eastwest;" vertex="1" parent="bYb3f7YGl_gzGOZ02LMp-225">
          <mxGeometry y="90" width="180" height="30" as="geometry" />
        </mxCell>
        <mxCell id="bYb3f7YGl_gzGOZ02LMp-233" value="" style="shape=partialRectangle;connectable=0;fillColor=none;top=0;left=0;bottom=0;right=0;editable=1;overflow=hidden;" vertex="1" parent="bYb3f7YGl_gzGOZ02LMp-232">
          <mxGeometry width="30" height="30" as="geometry" />
        </mxCell>
        <mxCell id="bYb3f7YGl_gzGOZ02LMp-234" value="promotion" style="shape=partialRectangle;connectable=0;fillColor=none;top=0;left=0;bottom=0;right=0;align=left;spacingLeft=6;overflow=hidden;" vertex="1" parent="bYb3f7YGl_gzGOZ02LMp-232">
          <mxGeometry x="30" width="150" height="30" as="geometry" />
        </mxCell>
        <mxCell id="bYb3f7YGl_gzGOZ02LMp-235" value="" style="shape=partialRectangle;collapsible=0;dropTarget=0;pointerEvents=0;fillColor=none;top=0;left=0;bottom=0;right=0;points=[[0,0.5],[1,0.5]];portConstraint=eastwest;" vertex="1" parent="bYb3f7YGl_gzGOZ02LMp-225">
          <mxGeometry y="120" width="180" height="30" as="geometry" />
        </mxCell>
        <mxCell id="bYb3f7YGl_gzGOZ02LMp-236" value="FK" style="shape=partialRectangle;connectable=0;fillColor=none;top=0;left=0;bottom=0;right=0;editable=1;overflow=hidden;" vertex="1" parent="bYb3f7YGl_gzGOZ02LMp-235">
          <mxGeometry width="30" height="30" as="geometry" />
        </mxCell>
        <mxCell id="bYb3f7YGl_gzGOZ02LMp-237" value="product_id" style="shape=partialRectangle;connectable=0;fillColor=none;top=0;left=0;bottom=0;right=0;align=left;spacingLeft=6;overflow=hidden;" vertex="1" parent="bYb3f7YGl_gzGOZ02LMp-235">
          <mxGeometry x="30" width="150" height="30" as="geometry" />
        </mxCell>
        <mxCell id="bYb3f7YGl_gzGOZ02LMp-238" value="" style="shape=partialRectangle;collapsible=0;dropTarget=0;pointerEvents=0;fillColor=none;top=0;left=0;bottom=0;right=0;points=[[0,0.5],[1,0.5]];portConstraint=eastwest;" vertex="1" parent="bYb3f7YGl_gzGOZ02LMp-225">
          <mxGeometry y="150" width="180" height="30" as="geometry" />
        </mxCell>
        <mxCell id="bYb3f7YGl_gzGOZ02LMp-239" value="" style="shape=partialRectangle;connectable=0;fillColor=none;top=0;left=0;bottom=0;right=0;editable=1;overflow=hidden;" vertex="1" parent="bYb3f7YGl_gzGOZ02LMp-238">
          <mxGeometry width="30" height="30" as="geometry" />
        </mxCell>
        <mxCell id="bYb3f7YGl_gzGOZ02LMp-240" value="status" style="shape=partialRectangle;connectable=0;fillColor=none;top=0;left=0;bottom=0;right=0;align=left;spacingLeft=6;overflow=hidden;" vertex="1" parent="bYb3f7YGl_gzGOZ02LMp-238">
          <mxGeometry x="30" width="150" height="30" as="geometry" />
        </mxCell>
        <mxCell id="bYb3f7YGl_gzGOZ02LMp-241" value="" style="shape=partialRectangle;collapsible=0;dropTarget=0;pointerEvents=0;fillColor=none;top=0;left=0;bottom=0;right=0;points=[[0,0.5],[1,0.5]];portConstraint=eastwest;" vertex="1" parent="bYb3f7YGl_gzGOZ02LMp-225">
          <mxGeometry y="180" width="180" height="30" as="geometry" />
        </mxCell>
        <mxCell id="bYb3f7YGl_gzGOZ02LMp-242" value="" style="shape=partialRectangle;connectable=0;fillColor=none;top=0;left=0;bottom=0;right=0;editable=1;overflow=hidden;" vertex="1" parent="bYb3f7YGl_gzGOZ02LMp-241">
          <mxGeometry width="30" height="30" as="geometry" />
        </mxCell>
        <mxCell id="bYb3f7YGl_gzGOZ02LMp-243" value="from_time" style="shape=partialRectangle;connectable=0;fillColor=none;top=0;left=0;bottom=0;right=0;align=left;spacingLeft=6;overflow=hidden;" vertex="1" parent="bYb3f7YGl_gzGOZ02LMp-241">
          <mxGeometry x="30" width="150" height="30" as="geometry" />
        </mxCell>
        <mxCell id="bYb3f7YGl_gzGOZ02LMp-244" value="" style="shape=partialRectangle;collapsible=0;dropTarget=0;pointerEvents=0;fillColor=none;top=0;left=0;bottom=0;right=0;points=[[0,0.5],[1,0.5]];portConstraint=eastwest;" vertex="1" parent="bYb3f7YGl_gzGOZ02LMp-225">
          <mxGeometry y="210" width="180" height="30" as="geometry" />
        </mxCell>
        <mxCell id="bYb3f7YGl_gzGOZ02LMp-245" value="" style="shape=partialRectangle;connectable=0;fillColor=none;top=0;left=0;bottom=0;right=0;editable=1;overflow=hidden;" vertex="1" parent="bYb3f7YGl_gzGOZ02LMp-244">
          <mxGeometry width="30" height="30" as="geometry" />
        </mxCell>
        <mxCell id="bYb3f7YGl_gzGOZ02LMp-246" value="to_time" style="shape=partialRectangle;connectable=0;fillColor=none;top=0;left=0;bottom=0;right=0;align=left;spacingLeft=6;overflow=hidden;" vertex="1" parent="bYb3f7YGl_gzGOZ02LMp-244">
          <mxGeometry x="30" width="150" height="30" as="geometry" />
        </mxCell>
        <mxCell id="bYb3f7YGl_gzGOZ02LMp-247" value="" style="shape=partialRectangle;collapsible=0;dropTarget=0;pointerEvents=0;fillColor=none;top=0;left=0;bottom=0;right=0;points=[[0,0.5],[1,0.5]];portConstraint=eastwest;" vertex="1" parent="bYb3f7YGl_gzGOZ02LMp-225">
          <mxGeometry y="240" width="180" height="30" as="geometry" />
        </mxCell>
        <mxCell id="bYb3f7YGl_gzGOZ02LMp-248" value="" style="shape=partialRectangle;connectable=0;fillColor=none;top=0;left=0;bottom=0;right=0;editable=1;overflow=hidden;" vertex="1" parent="bYb3f7YGl_gzGOZ02LMp-247">
          <mxGeometry width="30" height="30" as="geometry" />
        </mxCell>
        <mxCell id="bYb3f7YGl_gzGOZ02LMp-249" value="created_at" style="shape=partialRectangle;connectable=0;fillColor=none;top=0;left=0;bottom=0;right=0;align=left;spacingLeft=6;overflow=hidden;" vertex="1" parent="bYb3f7YGl_gzGOZ02LMp-247">
          <mxGeometry x="30" width="150" height="30" as="geometry" />
        </mxCell>
        <mxCell id="bYb3f7YGl_gzGOZ02LMp-250" value="" style="shape=partialRectangle;collapsible=0;dropTarget=0;pointerEvents=0;fillColor=none;top=0;left=0;bottom=0;right=0;points=[[0,0.5],[1,0.5]];portConstraint=eastwest;" vertex="1" parent="bYb3f7YGl_gzGOZ02LMp-225">
          <mxGeometry y="270" width="180" height="30" as="geometry" />
        </mxCell>
        <mxCell id="bYb3f7YGl_gzGOZ02LMp-251" value="" style="shape=partialRectangle;connectable=0;fillColor=none;top=0;left=0;bottom=0;right=0;editable=1;overflow=hidden;" vertex="1" parent="bYb3f7YGl_gzGOZ02LMp-250">
          <mxGeometry width="30" height="30" as="geometry" />
        </mxCell>
        <mxCell id="bYb3f7YGl_gzGOZ02LMp-252" value="update_at" style="shape=partialRectangle;connectable=0;fillColor=none;top=0;left=0;bottom=0;right=0;align=left;spacingLeft=6;overflow=hidden;" vertex="1" parent="bYb3f7YGl_gzGOZ02LMp-250">
          <mxGeometry x="30" width="150" height="30" as="geometry" />
        </mxCell>
        <mxCell id="bYb3f7YGl_gzGOZ02LMp-253" value="products" style="shape=table;startSize=30;container=1;collapsible=1;childLayout=tableLayout;fixedRows=1;rowLines=0;fontStyle=1;align=center;resizeLast=1;" vertex="1" parent="1">
          <mxGeometry x="430" width="180" height="700" as="geometry" />
        </mxCell>
        <mxCell id="bYb3f7YGl_gzGOZ02LMp-254" value="" style="shape=partialRectangle;collapsible=0;dropTarget=0;pointerEvents=0;fillColor=none;top=0;left=0;bottom=1;right=0;points=[[0,0.5],[1,0.5]];portConstraint=eastwest;" vertex="1" parent="bYb3f7YGl_gzGOZ02LMp-253">
          <mxGeometry y="30" width="180" height="30" as="geometry" />
        </mxCell>
        <mxCell id="bYb3f7YGl_gzGOZ02LMp-255" value="PK" style="shape=partialRectangle;connectable=0;fillColor=none;top=0;left=0;bottom=0;right=0;fontStyle=1;overflow=hidden;" vertex="1" parent="bYb3f7YGl_gzGOZ02LMp-254">
          <mxGeometry width="30" height="30" as="geometry" />
        </mxCell>
        <mxCell id="bYb3f7YGl_gzGOZ02LMp-256" value="id" style="shape=partialRectangle;connectable=0;fillColor=none;top=0;left=0;bottom=0;right=0;align=left;spacingLeft=6;fontStyle=5;overflow=hidden;" vertex="1" parent="bYb3f7YGl_gzGOZ02LMp-254">
          <mxGeometry x="30" width="150" height="30" as="geometry" />
        </mxCell>
        <mxCell id="bYb3f7YGl_gzGOZ02LMp-257" value="" style="shape=partialRectangle;collapsible=0;dropTarget=0;pointerEvents=0;fillColor=none;top=0;left=0;bottom=0;right=0;points=[[0,0.5],[1,0.5]];portConstraint=eastwest;" vertex="1" parent="bYb3f7YGl_gzGOZ02LMp-253">
          <mxGeometry y="60" width="180" height="30" as="geometry" />
        </mxCell>
        <mxCell id="bYb3f7YGl_gzGOZ02LMp-258" value="" style="shape=partialRectangle;connectable=0;fillColor=none;top=0;left=0;bottom=0;right=0;editable=1;overflow=hidden;" vertex="1" parent="bYb3f7YGl_gzGOZ02LMp-257">
          <mxGeometry width="30" height="30" as="geometry" />
        </mxCell>
        <mxCell id="bYb3f7YGl_gzGOZ02LMp-259" value="name" style="shape=partialRectangle;connectable=0;fillColor=none;top=0;left=0;bottom=0;right=0;align=left;spacingLeft=6;overflow=hidden;" vertex="1" parent="bYb3f7YGl_gzGOZ02LMp-257">
          <mxGeometry x="30" width="150" height="30" as="geometry" />
        </mxCell>
        <mxCell id="bYb3f7YGl_gzGOZ02LMp-260" value="" style="shape=partialRectangle;collapsible=0;dropTarget=0;pointerEvents=0;fillColor=none;top=0;left=0;bottom=0;right=0;points=[[0,0.5],[1,0.5]];portConstraint=eastwest;" vertex="1" parent="bYb3f7YGl_gzGOZ02LMp-253">
          <mxGeometry y="90" width="180" height="30" as="geometry" />
        </mxCell>
        <mxCell id="bYb3f7YGl_gzGOZ02LMp-261" value="" style="shape=partialRectangle;connectable=0;fillColor=none;top=0;left=0;bottom=0;right=0;editable=1;overflow=hidden;" vertex="1" parent="bYb3f7YGl_gzGOZ02LMp-260">
          <mxGeometry width="30" height="30" as="geometry" />
        </mxCell>
        <mxCell id="bYb3f7YGl_gzGOZ02LMp-262" value="description" style="shape=partialRectangle;connectable=0;fillColor=none;top=0;left=0;bottom=0;right=0;align=left;spacingLeft=6;overflow=hidden;" vertex="1" parent="bYb3f7YGl_gzGOZ02LMp-260">
          <mxGeometry x="30" width="150" height="30" as="geometry" />
        </mxCell>
        <mxCell id="bYb3f7YGl_gzGOZ02LMp-263" value="" style="shape=partialRectangle;collapsible=0;dropTarget=0;pointerEvents=0;fillColor=none;top=0;left=0;bottom=0;right=0;points=[[0,0.5],[1,0.5]];portConstraint=eastwest;" vertex="1" parent="bYb3f7YGl_gzGOZ02LMp-253">
          <mxGeometry y="120" width="180" height="30" as="geometry" />
        </mxCell>
        <mxCell id="bYb3f7YGl_gzGOZ02LMp-264" value="" style="shape=partialRectangle;connectable=0;fillColor=none;top=0;left=0;bottom=0;right=0;editable=1;overflow=hidden;" vertex="1" parent="bYb3f7YGl_gzGOZ02LMp-263">
          <mxGeometry width="30" height="30" as="geometry" />
        </mxCell>
        <mxCell id="bYb3f7YGl_gzGOZ02LMp-265" value="price" style="shape=partialRectangle;connectable=0;fillColor=none;top=0;left=0;bottom=0;right=0;align=left;spacingLeft=6;overflow=hidden;" vertex="1" parent="bYb3f7YGl_gzGOZ02LMp-263">
          <mxGeometry x="30" width="150" height="30" as="geometry" />
        </mxCell>
        <mxCell id="bYb3f7YGl_gzGOZ02LMp-266" value="" style="shape=partialRectangle;collapsible=0;dropTarget=0;pointerEvents=0;fillColor=none;top=0;left=0;bottom=0;right=0;points=[[0,0.5],[1,0.5]];portConstraint=eastwest;" vertex="1" parent="bYb3f7YGl_gzGOZ02LMp-253">
          <mxGeometry y="150" width="180" height="30" as="geometry" />
        </mxCell>
        <mxCell id="bYb3f7YGl_gzGOZ02LMp-267" value="" style="shape=partialRectangle;connectable=0;fillColor=none;top=0;left=0;bottom=0;right=0;editable=1;overflow=hidden;" vertex="1" parent="bYb3f7YGl_gzGOZ02LMp-266">
          <mxGeometry width="30" height="30" as="geometry" />
        </mxCell>
        <mxCell id="bYb3f7YGl_gzGOZ02LMp-268" value="sell" style="shape=partialRectangle;connectable=0;fillColor=none;top=0;left=0;bottom=0;right=0;align=left;spacingLeft=6;overflow=hidden;" vertex="1" parent="bYb3f7YGl_gzGOZ02LMp-266">
          <mxGeometry x="30" width="150" height="30" as="geometry" />
        </mxCell>
        <mxCell id="bYb3f7YGl_gzGOZ02LMp-269" value="" style="shape=partialRectangle;collapsible=0;dropTarget=0;pointerEvents=0;fillColor=none;top=0;left=0;bottom=0;right=0;points=[[0,0.5],[1,0.5]];portConstraint=eastwest;" vertex="1" parent="bYb3f7YGl_gzGOZ02LMp-253">
          <mxGeometry y="180" width="180" height="30" as="geometry" />
        </mxCell>
        <mxCell id="bYb3f7YGl_gzGOZ02LMp-270" value="" style="shape=partialRectangle;connectable=0;fillColor=none;top=0;left=0;bottom=0;right=0;editable=1;overflow=hidden;" vertex="1" parent="bYb3f7YGl_gzGOZ02LMp-269">
          <mxGeometry width="30" height="30" as="geometry" />
        </mxCell>
        <mxCell id="bYb3f7YGl_gzGOZ02LMp-271" value="quantity" style="shape=partialRectangle;connectable=0;fillColor=none;top=0;left=0;bottom=0;right=0;align=left;spacingLeft=6;overflow=hidden;" vertex="1" parent="bYb3f7YGl_gzGOZ02LMp-269">
          <mxGeometry x="30" width="150" height="30" as="geometry" />
        </mxCell>
        <mxCell id="bYb3f7YGl_gzGOZ02LMp-272" value="" style="shape=partialRectangle;collapsible=0;dropTarget=0;pointerEvents=0;fillColor=none;top=0;left=0;bottom=0;right=0;points=[[0,0.5],[1,0.5]];portConstraint=eastwest;" vertex="1" parent="bYb3f7YGl_gzGOZ02LMp-253">
          <mxGeometry y="210" width="180" height="30" as="geometry" />
        </mxCell>
        <mxCell id="bYb3f7YGl_gzGOZ02LMp-273" value="" style="shape=partialRectangle;connectable=0;fillColor=none;top=0;left=0;bottom=0;right=0;editable=1;overflow=hidden;" vertex="1" parent="bYb3f7YGl_gzGOZ02LMp-272">
          <mxGeometry width="30" height="30" as="geometry" />
        </mxCell>
        <mxCell id="bYb3f7YGl_gzGOZ02LMp-274" value="promotion" style="shape=partialRectangle;connectable=0;fillColor=none;top=0;left=0;bottom=0;right=0;align=left;spacingLeft=6;overflow=hidden;" vertex="1" parent="bYb3f7YGl_gzGOZ02LMp-272">
          <mxGeometry x="30" width="150" height="30" as="geometry" />
        </mxCell>
        <mxCell id="bYb3f7YGl_gzGOZ02LMp-275" value="" style="shape=partialRectangle;collapsible=0;dropTarget=0;pointerEvents=0;fillColor=none;top=0;left=0;bottom=0;right=0;points=[[0,0.5],[1,0.5]];portConstraint=eastwest;" vertex="1" parent="bYb3f7YGl_gzGOZ02LMp-253">
          <mxGeometry y="240" width="180" height="30" as="geometry" />
        </mxCell>
        <mxCell id="bYb3f7YGl_gzGOZ02LMp-276" value="" style="shape=partialRectangle;connectable=0;fillColor=none;top=0;left=0;bottom=0;right=0;editable=1;overflow=hidden;" vertex="1" parent="bYb3f7YGl_gzGOZ02LMp-275">
          <mxGeometry width="30" height="30" as="geometry" />
        </mxCell>
        <mxCell id="bYb3f7YGl_gzGOZ02LMp-277" value="image" style="shape=partialRectangle;connectable=0;fillColor=none;top=0;left=0;bottom=0;right=0;align=left;spacingLeft=6;overflow=hidden;" vertex="1" parent="bYb3f7YGl_gzGOZ02LMp-275">
          <mxGeometry x="30" width="150" height="30" as="geometry" />
        </mxCell>
        <mxCell id="bYb3f7YGl_gzGOZ02LMp-278" value="" style="shape=partialRectangle;collapsible=0;dropTarget=0;pointerEvents=0;fillColor=none;top=0;left=0;bottom=0;right=0;points=[[0,0.5],[1,0.5]];portConstraint=eastwest;" vertex="1" parent="bYb3f7YGl_gzGOZ02LMp-253">
          <mxGeometry y="270" width="180" height="30" as="geometry" />
        </mxCell>
        <mxCell id="bYb3f7YGl_gzGOZ02LMp-279" value="" style="shape=partialRectangle;connectable=0;fillColor=none;top=0;left=0;bottom=0;right=0;editable=1;overflow=hidden;" vertex="1" parent="bYb3f7YGl_gzGOZ02LMp-278">
          <mxGeometry width="30" height="30" as="geometry" />
        </mxCell>
        <mxCell id="bYb3f7YGl_gzGOZ02LMp-280" value="cpu" style="shape=partialRectangle;connectable=0;fillColor=none;top=0;left=0;bottom=0;right=0;align=left;spacingLeft=6;overflow=hidden;" vertex="1" parent="bYb3f7YGl_gzGOZ02LMp-278">
          <mxGeometry x="30" width="150" height="30" as="geometry" />
        </mxCell>
        <mxCell id="bYb3f7YGl_gzGOZ02LMp-281" value="" style="shape=partialRectangle;collapsible=0;dropTarget=0;pointerEvents=0;fillColor=none;top=0;left=0;bottom=0;right=0;points=[[0,0.5],[1,0.5]];portConstraint=eastwest;" vertex="1" parent="bYb3f7YGl_gzGOZ02LMp-253">
          <mxGeometry y="300" width="180" height="30" as="geometry" />
        </mxCell>
        <mxCell id="bYb3f7YGl_gzGOZ02LMp-282" value="" style="shape=partialRectangle;connectable=0;fillColor=none;top=0;left=0;bottom=0;right=0;editable=1;overflow=hidden;" vertex="1" parent="bYb3f7YGl_gzGOZ02LMp-281">
          <mxGeometry width="30" height="30" as="geometry" />
        </mxCell>
        <mxCell id="bYb3f7YGl_gzGOZ02LMp-283" value="ram" style="shape=partialRectangle;connectable=0;fillColor=none;top=0;left=0;bottom=0;right=0;align=left;spacingLeft=6;overflow=hidden;" vertex="1" parent="bYb3f7YGl_gzGOZ02LMp-281">
          <mxGeometry x="30" width="150" height="30" as="geometry" />
        </mxCell>
        <mxCell id="bYb3f7YGl_gzGOZ02LMp-284" value="" style="shape=partialRectangle;collapsible=0;dropTarget=0;pointerEvents=0;fillColor=none;top=0;left=0;bottom=0;right=0;points=[[0,0.5],[1,0.5]];portConstraint=eastwest;" vertex="1" parent="bYb3f7YGl_gzGOZ02LMp-253">
          <mxGeometry y="330" width="180" height="30" as="geometry" />
        </mxCell>
        <mxCell id="bYb3f7YGl_gzGOZ02LMp-285" value="" style="shape=partialRectangle;connectable=0;fillColor=none;top=0;left=0;bottom=0;right=0;editable=1;overflow=hidden;" vertex="1" parent="bYb3f7YGl_gzGOZ02LMp-284">
          <mxGeometry width="30" height="30" as="geometry" />
        </mxCell>
        <mxCell id="bYb3f7YGl_gzGOZ02LMp-286" value="disk" style="shape=partialRectangle;connectable=0;fillColor=none;top=0;left=0;bottom=0;right=0;align=left;spacingLeft=6;overflow=hidden;" vertex="1" parent="bYb3f7YGl_gzGOZ02LMp-284">
          <mxGeometry x="30" width="150" height="30" as="geometry" />
        </mxCell>
        <mxCell id="bYb3f7YGl_gzGOZ02LMp-287" value="" style="shape=partialRectangle;collapsible=0;dropTarget=0;pointerEvents=0;fillColor=none;top=0;left=0;bottom=0;right=0;points=[[0,0.5],[1,0.5]];portConstraint=eastwest;" vertex="1" parent="bYb3f7YGl_gzGOZ02LMp-253">
          <mxGeometry y="360" width="180" height="30" as="geometry" />
        </mxCell>
        <mxCell id="bYb3f7YGl_gzGOZ02LMp-288" value="" style="shape=partialRectangle;connectable=0;fillColor=none;top=0;left=0;bottom=0;right=0;editable=1;overflow=hidden;" vertex="1" parent="bYb3f7YGl_gzGOZ02LMp-287">
          <mxGeometry width="30" height="30" as="geometry" />
        </mxCell>
        <mxCell id="bYb3f7YGl_gzGOZ02LMp-289" value="vga" style="shape=partialRectangle;connectable=0;fillColor=none;top=0;left=0;bottom=0;right=0;align=left;spacingLeft=6;overflow=hidden;" vertex="1" parent="bYb3f7YGl_gzGOZ02LMp-287">
          <mxGeometry x="30" width="150" height="30" as="geometry" />
        </mxCell>
        <mxCell id="bYb3f7YGl_gzGOZ02LMp-290" value="" style="shape=partialRectangle;collapsible=0;dropTarget=0;pointerEvents=0;fillColor=none;top=0;left=0;bottom=0;right=0;points=[[0,0.5],[1,0.5]];portConstraint=eastwest;" vertex="1" parent="bYb3f7YGl_gzGOZ02LMp-253">
          <mxGeometry y="390" width="180" height="30" as="geometry" />
        </mxCell>
        <mxCell id="bYb3f7YGl_gzGOZ02LMp-291" value="" style="shape=partialRectangle;connectable=0;fillColor=none;top=0;left=0;bottom=0;right=0;editable=1;overflow=hidden;" vertex="1" parent="bYb3f7YGl_gzGOZ02LMp-290">
          <mxGeometry width="30" height="30" as="geometry" />
        </mxCell>
        <mxCell id="bYb3f7YGl_gzGOZ02LMp-292" value="screen" style="shape=partialRectangle;connectable=0;fillColor=none;top=0;left=0;bottom=0;right=0;align=left;spacingLeft=6;overflow=hidden;" vertex="1" parent="bYb3f7YGl_gzGOZ02LMp-290">
          <mxGeometry x="30" width="150" height="30" as="geometry" />
        </mxCell>
        <mxCell id="bYb3f7YGl_gzGOZ02LMp-293" value="" style="shape=partialRectangle;collapsible=0;dropTarget=0;pointerEvents=0;fillColor=none;top=0;left=0;bottom=0;right=0;points=[[0,0.5],[1,0.5]];portConstraint=eastwest;" vertex="1" parent="bYb3f7YGl_gzGOZ02LMp-253">
          <mxGeometry y="420" width="180" height="30" as="geometry" />
        </mxCell>
        <mxCell id="bYb3f7YGl_gzGOZ02LMp-294" value="" style="shape=partialRectangle;connectable=0;fillColor=none;top=0;left=0;bottom=0;right=0;editable=1;overflow=hidden;" vertex="1" parent="bYb3f7YGl_gzGOZ02LMp-293">
          <mxGeometry width="30" height="30" as="geometry" />
        </mxCell>
        <mxCell id="bYb3f7YGl_gzGOZ02LMp-295" value="resolution" style="shape=partialRectangle;connectable=0;fillColor=none;top=0;left=0;bottom=0;right=0;align=left;spacingLeft=6;overflow=hidden;" vertex="1" parent="bYb3f7YGl_gzGOZ02LMp-293">
          <mxGeometry x="30" width="150" height="30" as="geometry" />
        </mxCell>
        <mxCell id="bYb3f7YGl_gzGOZ02LMp-296" value="" style="shape=partialRectangle;collapsible=0;dropTarget=0;pointerEvents=0;fillColor=none;top=0;left=0;bottom=0;right=0;points=[[0,0.5],[1,0.5]];portConstraint=eastwest;" vertex="1" parent="bYb3f7YGl_gzGOZ02LMp-253">
          <mxGeometry y="450" width="180" height="30" as="geometry" />
        </mxCell>
        <mxCell id="bYb3f7YGl_gzGOZ02LMp-297" value="" style="shape=partialRectangle;connectable=0;fillColor=none;top=0;left=0;bottom=0;right=0;editable=1;overflow=hidden;" vertex="1" parent="bYb3f7YGl_gzGOZ02LMp-296">
          <mxGeometry width="30" height="30" as="geometry" />
        </mxCell>
        <mxCell id="bYb3f7YGl_gzGOZ02LMp-298" value="video" style="shape=partialRectangle;connectable=0;fillColor=none;top=0;left=0;bottom=0;right=0;align=left;spacingLeft=6;overflow=hidden;" vertex="1" parent="bYb3f7YGl_gzGOZ02LMp-296">
          <mxGeometry x="30" width="150" height="30" as="geometry" />
        </mxCell>
        <mxCell id="bYb3f7YGl_gzGOZ02LMp-299" value="" style="shape=partialRectangle;collapsible=0;dropTarget=0;pointerEvents=0;fillColor=none;top=0;left=0;bottom=0;right=0;points=[[0,0.5],[1,0.5]];portConstraint=eastwest;" vertex="1" parent="bYb3f7YGl_gzGOZ02LMp-253">
          <mxGeometry y="480" width="180" height="30" as="geometry" />
        </mxCell>
        <mxCell id="bYb3f7YGl_gzGOZ02LMp-300" value="" style="shape=partialRectangle;connectable=0;fillColor=none;top=0;left=0;bottom=0;right=0;editable=1;overflow=hidden;" vertex="1" parent="bYb3f7YGl_gzGOZ02LMp-299">
          <mxGeometry width="30" height="30" as="geometry" />
        </mxCell>
        <mxCell id="bYb3f7YGl_gzGOZ02LMp-301" value="view" style="shape=partialRectangle;connectable=0;fillColor=none;top=0;left=0;bottom=0;right=0;align=left;spacingLeft=6;overflow=hidden;" vertex="1" parent="bYb3f7YGl_gzGOZ02LMp-299">
          <mxGeometry x="30" width="150" height="30" as="geometry" />
        </mxCell>
        <mxCell id="bYb3f7YGl_gzGOZ02LMp-302" value="" style="shape=partialRectangle;collapsible=0;dropTarget=0;pointerEvents=0;fillColor=none;top=0;left=0;bottom=0;right=0;points=[[0,0.5],[1,0.5]];portConstraint=eastwest;" vertex="1" parent="bYb3f7YGl_gzGOZ02LMp-253">
          <mxGeometry y="510" width="180" height="30" as="geometry" />
        </mxCell>
        <mxCell id="bYb3f7YGl_gzGOZ02LMp-303" value="" style="shape=partialRectangle;connectable=0;fillColor=none;top=0;left=0;bottom=0;right=0;editable=1;overflow=hidden;" vertex="1" parent="bYb3f7YGl_gzGOZ02LMp-302">
          <mxGeometry width="30" height="30" as="geometry" />
        </mxCell>
        <mxCell id="bYb3f7YGl_gzGOZ02LMp-304" value="buy_count" style="shape=partialRectangle;connectable=0;fillColor=none;top=0;left=0;bottom=0;right=0;align=left;spacingLeft=6;overflow=hidden;" vertex="1" parent="bYb3f7YGl_gzGOZ02LMp-302">
          <mxGeometry x="30" width="150" height="30" as="geometry" />
        </mxCell>
        <mxCell id="bYb3f7YGl_gzGOZ02LMp-305" value="" style="shape=partialRectangle;collapsible=0;dropTarget=0;pointerEvents=0;fillColor=none;top=0;left=0;bottom=0;right=0;points=[[0,0.5],[1,0.5]];portConstraint=eastwest;" vertex="1" parent="bYb3f7YGl_gzGOZ02LMp-253">
          <mxGeometry y="540" width="180" height="30" as="geometry" />
        </mxCell>
        <mxCell id="bYb3f7YGl_gzGOZ02LMp-306" value="" style="shape=partialRectangle;connectable=0;fillColor=none;top=0;left=0;bottom=0;right=0;editable=1;overflow=hidden;" vertex="1" parent="bYb3f7YGl_gzGOZ02LMp-305">
          <mxGeometry width="30" height="30" as="geometry" />
        </mxCell>
        <mxCell id="bYb3f7YGl_gzGOZ02LMp-307" value="status" style="shape=partialRectangle;connectable=0;fillColor=none;top=0;left=0;bottom=0;right=0;align=left;spacingLeft=6;overflow=hidden;" vertex="1" parent="bYb3f7YGl_gzGOZ02LMp-305">
          <mxGeometry x="30" width="150" height="30" as="geometry" />
        </mxCell>
        <mxCell id="bYb3f7YGl_gzGOZ02LMp-308" value="" style="shape=partialRectangle;collapsible=0;dropTarget=0;pointerEvents=0;fillColor=none;top=0;left=0;bottom=0;right=0;points=[[0,0.5],[1,0.5]];portConstraint=eastwest;" vertex="1" parent="bYb3f7YGl_gzGOZ02LMp-253">
          <mxGeometry y="570" width="180" height="30" as="geometry" />
        </mxCell>
        <mxCell id="bYb3f7YGl_gzGOZ02LMp-309" value="" style="shape=partialRectangle;connectable=0;fillColor=none;top=0;left=0;bottom=0;right=0;editable=1;overflow=hidden;" vertex="1" parent="bYb3f7YGl_gzGOZ02LMp-308">
          <mxGeometry width="30" height="30" as="geometry" />
        </mxCell>
        <mxCell id="bYb3f7YGl_gzGOZ02LMp-310" value="check" style="shape=partialRectangle;connectable=0;fillColor=none;top=0;left=0;bottom=0;right=0;align=left;spacingLeft=6;overflow=hidden;" vertex="1" parent="bYb3f7YGl_gzGOZ02LMp-308">
          <mxGeometry x="30" width="150" height="30" as="geometry" />
        </mxCell>
        <mxCell id="bYb3f7YGl_gzGOZ02LMp-311" value="" style="shape=partialRectangle;collapsible=0;dropTarget=0;pointerEvents=0;fillColor=none;top=0;left=0;bottom=0;right=0;points=[[0,0.5],[1,0.5]];portConstraint=eastwest;" vertex="1" parent="bYb3f7YGl_gzGOZ02LMp-253">
          <mxGeometry y="600" width="180" height="30" as="geometry" />
        </mxCell>
        <mxCell id="bYb3f7YGl_gzGOZ02LMp-312" value="FK" style="shape=partialRectangle;connectable=0;fillColor=none;top=0;left=0;bottom=0;right=0;editable=1;overflow=hidden;" vertex="1" parent="bYb3f7YGl_gzGOZ02LMp-311">
          <mxGeometry width="30" height="30" as="geometry" />
        </mxCell>
        <mxCell id="bYb3f7YGl_gzGOZ02LMp-313" value="productline" style="shape=partialRectangle;connectable=0;fillColor=none;top=0;left=0;bottom=0;right=0;align=left;spacingLeft=6;overflow=hidden;" vertex="1" parent="bYb3f7YGl_gzGOZ02LMp-311">
          <mxGeometry x="30" width="150" height="30" as="geometry" />
        </mxCell>
        <mxCell id="bYb3f7YGl_gzGOZ02LMp-375" value="" style="shape=partialRectangle;collapsible=0;dropTarget=0;pointerEvents=0;fillColor=none;top=0;left=0;bottom=0;right=0;points=[[0,0.5],[1,0.5]];portConstraint=eastwest;" vertex="1" parent="bYb3f7YGl_gzGOZ02LMp-253">
          <mxGeometry y="630" width="180" height="30" as="geometry" />
        </mxCell>
        <mxCell id="bYb3f7YGl_gzGOZ02LMp-376" value="" style="shape=partialRectangle;connectable=0;fillColor=none;top=0;left=0;bottom=0;right=0;editable=1;overflow=hidden;" vertex="1" parent="bYb3f7YGl_gzGOZ02LMp-375">
          <mxGeometry width="30" height="30" as="geometry" />
        </mxCell>
        <mxCell id="bYb3f7YGl_gzGOZ02LMp-377" value="created_at" style="shape=partialRectangle;connectable=0;fillColor=none;top=0;left=0;bottom=0;right=0;align=left;spacingLeft=6;overflow=hidden;" vertex="1" parent="bYb3f7YGl_gzGOZ02LMp-375">
          <mxGeometry x="30" width="150" height="30" as="geometry" />
        </mxCell>
        <mxCell id="bYb3f7YGl_gzGOZ02LMp-378" value="" style="shape=partialRectangle;collapsible=0;dropTarget=0;pointerEvents=0;fillColor=none;top=0;left=0;bottom=0;right=0;points=[[0,0.5],[1,0.5]];portConstraint=eastwest;" vertex="1" parent="bYb3f7YGl_gzGOZ02LMp-253">
          <mxGeometry y="660" width="180" height="30" as="geometry" />
        </mxCell>
        <mxCell id="bYb3f7YGl_gzGOZ02LMp-379" value="" style="shape=partialRectangle;connectable=0;fillColor=none;top=0;left=0;bottom=0;right=0;editable=1;overflow=hidden;" vertex="1" parent="bYb3f7YGl_gzGOZ02LMp-378">
          <mxGeometry width="30" height="30" as="geometry" />
        </mxCell>
        <mxCell id="bYb3f7YGl_gzGOZ02LMp-380" value="update_at" style="shape=partialRectangle;connectable=0;fillColor=none;top=0;left=0;bottom=0;right=0;align=left;spacingLeft=6;overflow=hidden;" vertex="1" parent="bYb3f7YGl_gzGOZ02LMp-378">
          <mxGeometry x="30" width="150" height="30" as="geometry" />
        </mxCell>
        <mxCell id="bYb3f7YGl_gzGOZ02LMp-385" value="productlines" style="shape=table;startSize=30;container=1;collapsible=1;childLayout=tableLayout;fixedRows=1;rowLines=0;fontStyle=1;align=center;resizeLast=1;" vertex="1" parent="1">
          <mxGeometry x="180" y="510" width="180" height="190" as="geometry" />
        </mxCell>
        <mxCell id="bYb3f7YGl_gzGOZ02LMp-386" value="" style="shape=partialRectangle;collapsible=0;dropTarget=0;pointerEvents=0;fillColor=none;top=0;left=0;bottom=1;right=0;points=[[0,0.5],[1,0.5]];portConstraint=eastwest;" vertex="1" parent="bYb3f7YGl_gzGOZ02LMp-385">
          <mxGeometry y="30" width="180" height="30" as="geometry" />
        </mxCell>
        <mxCell id="bYb3f7YGl_gzGOZ02LMp-387" value="PK" style="shape=partialRectangle;connectable=0;fillColor=none;top=0;left=0;bottom=0;right=0;fontStyle=1;overflow=hidden;" vertex="1" parent="bYb3f7YGl_gzGOZ02LMp-386">
          <mxGeometry width="30" height="30" as="geometry" />
        </mxCell>
        <mxCell id="bYb3f7YGl_gzGOZ02LMp-388" value="id" style="shape=partialRectangle;connectable=0;fillColor=none;top=0;left=0;bottom=0;right=0;align=left;spacingLeft=6;fontStyle=5;overflow=hidden;" vertex="1" parent="bYb3f7YGl_gzGOZ02LMp-386">
          <mxGeometry x="30" width="150" height="30" as="geometry" />
        </mxCell>
        <mxCell id="bYb3f7YGl_gzGOZ02LMp-389" value="" style="shape=partialRectangle;collapsible=0;dropTarget=0;pointerEvents=0;fillColor=none;top=0;left=0;bottom=0;right=0;points=[[0,0.5],[1,0.5]];portConstraint=eastwest;" vertex="1" parent="bYb3f7YGl_gzGOZ02LMp-385">
          <mxGeometry y="60" width="180" height="30" as="geometry" />
        </mxCell>
        <mxCell id="bYb3f7YGl_gzGOZ02LMp-390" value="" style="shape=partialRectangle;connectable=0;fillColor=none;top=0;left=0;bottom=0;right=0;editable=1;overflow=hidden;" vertex="1" parent="bYb3f7YGl_gzGOZ02LMp-389">
          <mxGeometry width="30" height="30" as="geometry" />
        </mxCell>
        <mxCell id="bYb3f7YGl_gzGOZ02LMp-391" value="name" style="shape=partialRectangle;connectable=0;fillColor=none;top=0;left=0;bottom=0;right=0;align=left;spacingLeft=6;overflow=hidden;" vertex="1" parent="bYb3f7YGl_gzGOZ02LMp-389">
          <mxGeometry x="30" width="150" height="30" as="geometry" />
        </mxCell>
        <mxCell id="bYb3f7YGl_gzGOZ02LMp-392" value="" style="shape=partialRectangle;collapsible=0;dropTarget=0;pointerEvents=0;fillColor=none;top=0;left=0;bottom=0;right=0;points=[[0,0.5],[1,0.5]];portConstraint=eastwest;" vertex="1" parent="bYb3f7YGl_gzGOZ02LMp-385">
          <mxGeometry y="90" width="180" height="30" as="geometry" />
        </mxCell>
        <mxCell id="bYb3f7YGl_gzGOZ02LMp-393" value="FK" style="shape=partialRectangle;connectable=0;fillColor=none;top=0;left=0;bottom=0;right=0;editable=1;overflow=hidden;" vertex="1" parent="bYb3f7YGl_gzGOZ02LMp-392">
          <mxGeometry width="30" height="30" as="geometry" />
        </mxCell>
        <mxCell id="bYb3f7YGl_gzGOZ02LMp-394" value="brand_id" style="shape=partialRectangle;connectable=0;fillColor=none;top=0;left=0;bottom=0;right=0;align=left;spacingLeft=6;overflow=hidden;" vertex="1" parent="bYb3f7YGl_gzGOZ02LMp-392">
          <mxGeometry x="30" width="150" height="30" as="geometry" />
        </mxCell>
        <mxCell id="bYb3f7YGl_gzGOZ02LMp-395" value="" style="shape=partialRectangle;collapsible=0;dropTarget=0;pointerEvents=0;fillColor=none;top=0;left=0;bottom=0;right=0;points=[[0,0.5],[1,0.5]];portConstraint=eastwest;" vertex="1" parent="bYb3f7YGl_gzGOZ02LMp-385">
          <mxGeometry y="120" width="180" height="30" as="geometry" />
        </mxCell>
        <mxCell id="bYb3f7YGl_gzGOZ02LMp-396" value="" style="shape=partialRectangle;connectable=0;fillColor=none;top=0;left=0;bottom=0;right=0;editable=1;overflow=hidden;" vertex="1" parent="bYb3f7YGl_gzGOZ02LMp-395">
          <mxGeometry width="30" height="30" as="geometry" />
        </mxCell>
        <mxCell id="bYb3f7YGl_gzGOZ02LMp-397" value="created_at" style="shape=partialRectangle;connectable=0;fillColor=none;top=0;left=0;bottom=0;right=0;align=left;spacingLeft=6;overflow=hidden;" vertex="1" parent="bYb3f7YGl_gzGOZ02LMp-395">
          <mxGeometry x="30" width="150" height="30" as="geometry" />
        </mxCell>
        <mxCell id="bYb3f7YGl_gzGOZ02LMp-398" value="" style="shape=partialRectangle;collapsible=0;dropTarget=0;pointerEvents=0;fillColor=none;top=0;left=0;bottom=0;right=0;points=[[0,0.5],[1,0.5]];portConstraint=eastwest;" vertex="1" parent="bYb3f7YGl_gzGOZ02LMp-385">
          <mxGeometry y="150" width="180" height="30" as="geometry" />
        </mxCell>
        <mxCell id="bYb3f7YGl_gzGOZ02LMp-399" value="" style="shape=partialRectangle;connectable=0;fillColor=none;top=0;left=0;bottom=0;right=0;editable=1;overflow=hidden;" vertex="1" parent="bYb3f7YGl_gzGOZ02LMp-398">
          <mxGeometry width="30" height="30" as="geometry" />
        </mxCell>
        <mxCell id="bYb3f7YGl_gzGOZ02LMp-400" value="created_at" style="shape=partialRectangle;connectable=0;fillColor=none;top=0;left=0;bottom=0;right=0;align=left;spacingLeft=6;overflow=hidden;" vertex="1" parent="bYb3f7YGl_gzGOZ02LMp-398">
          <mxGeometry x="30" width="150" height="30" as="geometry" />
        </mxCell>
        <mxCell id="bYb3f7YGl_gzGOZ02LMp-401" value="brands" style="shape=table;startSize=30;container=1;collapsible=1;childLayout=tableLayout;fixedRows=1;rowLines=0;fontStyle=1;align=center;resizeLast=1;" vertex="1" parent="1">
          <mxGeometry x="-70" y="525" width="180" height="160" as="geometry" />
        </mxCell>
        <mxCell id="bYb3f7YGl_gzGOZ02LMp-402" value="" style="shape=partialRectangle;collapsible=0;dropTarget=0;pointerEvents=0;fillColor=none;top=0;left=0;bottom=1;right=0;points=[[0,0.5],[1,0.5]];portConstraint=eastwest;" vertex="1" parent="bYb3f7YGl_gzGOZ02LMp-401">
          <mxGeometry y="30" width="180" height="30" as="geometry" />
        </mxCell>
        <mxCell id="bYb3f7YGl_gzGOZ02LMp-403" value="PK" style="shape=partialRectangle;connectable=0;fillColor=none;top=0;left=0;bottom=0;right=0;fontStyle=1;overflow=hidden;" vertex="1" parent="bYb3f7YGl_gzGOZ02LMp-402">
          <mxGeometry width="30" height="30" as="geometry" />
        </mxCell>
        <mxCell id="bYb3f7YGl_gzGOZ02LMp-404" value="id" style="shape=partialRectangle;connectable=0;fillColor=none;top=0;left=0;bottom=0;right=0;align=left;spacingLeft=6;fontStyle=5;overflow=hidden;" vertex="1" parent="bYb3f7YGl_gzGOZ02LMp-402">
          <mxGeometry x="30" width="150" height="30" as="geometry" />
        </mxCell>
        <mxCell id="bYb3f7YGl_gzGOZ02LMp-405" value="" style="shape=partialRectangle;collapsible=0;dropTarget=0;pointerEvents=0;fillColor=none;top=0;left=0;bottom=0;right=0;points=[[0,0.5],[1,0.5]];portConstraint=eastwest;" vertex="1" parent="bYb3f7YGl_gzGOZ02LMp-401">
          <mxGeometry y="60" width="180" height="30" as="geometry" />
        </mxCell>
        <mxCell id="bYb3f7YGl_gzGOZ02LMp-406" value="" style="shape=partialRectangle;connectable=0;fillColor=none;top=0;left=0;bottom=0;right=0;editable=1;overflow=hidden;" vertex="1" parent="bYb3f7YGl_gzGOZ02LMp-405">
          <mxGeometry width="30" height="30" as="geometry" />
        </mxCell>
        <mxCell id="bYb3f7YGl_gzGOZ02LMp-407" value="name" style="shape=partialRectangle;connectable=0;fillColor=none;top=0;left=0;bottom=0;right=0;align=left;spacingLeft=6;overflow=hidden;" vertex="1" parent="bYb3f7YGl_gzGOZ02LMp-405">
          <mxGeometry x="30" width="150" height="30" as="geometry" />
        </mxCell>
        <mxCell id="bYb3f7YGl_gzGOZ02LMp-408" value="" style="shape=partialRectangle;collapsible=0;dropTarget=0;pointerEvents=0;fillColor=none;top=0;left=0;bottom=0;right=0;points=[[0,0.5],[1,0.5]];portConstraint=eastwest;" vertex="1" parent="bYb3f7YGl_gzGOZ02LMp-401">
          <mxGeometry y="90" width="180" height="30" as="geometry" />
        </mxCell>
        <mxCell id="bYb3f7YGl_gzGOZ02LMp-409" value="" style="shape=partialRectangle;connectable=0;fillColor=none;top=0;left=0;bottom=0;right=0;editable=1;overflow=hidden;" vertex="1" parent="bYb3f7YGl_gzGOZ02LMp-408">
          <mxGeometry width="30" height="30" as="geometry" />
        </mxCell>
        <mxCell id="bYb3f7YGl_gzGOZ02LMp-410" value="created_at" style="shape=partialRectangle;connectable=0;fillColor=none;top=0;left=0;bottom=0;right=0;align=left;spacingLeft=6;overflow=hidden;" vertex="1" parent="bYb3f7YGl_gzGOZ02LMp-408">
          <mxGeometry x="30" width="150" height="30" as="geometry" />
        </mxCell>
        <mxCell id="bYb3f7YGl_gzGOZ02LMp-411" value="" style="shape=partialRectangle;collapsible=0;dropTarget=0;pointerEvents=0;fillColor=none;top=0;left=0;bottom=0;right=0;points=[[0,0.5],[1,0.5]];portConstraint=eastwest;" vertex="1" parent="bYb3f7YGl_gzGOZ02LMp-401">
          <mxGeometry y="120" width="180" height="30" as="geometry" />
        </mxCell>
        <mxCell id="bYb3f7YGl_gzGOZ02LMp-412" value="" style="shape=partialRectangle;connectable=0;fillColor=none;top=0;left=0;bottom=0;right=0;editable=1;overflow=hidden;" vertex="1" parent="bYb3f7YGl_gzGOZ02LMp-411">
          <mxGeometry width="30" height="30" as="geometry" />
        </mxCell>
        <mxCell id="bYb3f7YGl_gzGOZ02LMp-413" value="updated_at" style="shape=partialRectangle;connectable=0;fillColor=none;top=0;left=0;bottom=0;right=0;align=left;spacingLeft=6;overflow=hidden;" vertex="1" parent="bYb3f7YGl_gzGOZ02LMp-411">
          <mxGeometry x="30" width="150" height="30" as="geometry" />
        </mxCell>
        <mxCell id="bYb3f7YGl_gzGOZ02LMp-414" value="bills" style="shape=table;startSize=30;container=1;collapsible=1;childLayout=tableLayout;fixedRows=1;rowLines=0;fontStyle=1;align=center;resizeLast=1;" vertex="1" parent="1">
          <mxGeometry x="-20" y="-110" width="180" height="250" as="geometry" />
        </mxCell>
        <mxCell id="bYb3f7YGl_gzGOZ02LMp-415" value="" style="shape=partialRectangle;collapsible=0;dropTarget=0;pointerEvents=0;fillColor=none;top=0;left=0;bottom=1;right=0;points=[[0,0.5],[1,0.5]];portConstraint=eastwest;" vertex="1" parent="bYb3f7YGl_gzGOZ02LMp-414">
          <mxGeometry y="30" width="180" height="30" as="geometry" />
        </mxCell>
        <mxCell id="bYb3f7YGl_gzGOZ02LMp-416" value="PK" style="shape=partialRectangle;connectable=0;fillColor=none;top=0;left=0;bottom=0;right=0;fontStyle=1;overflow=hidden;" vertex="1" parent="bYb3f7YGl_gzGOZ02LMp-415">
          <mxGeometry width="30" height="30" as="geometry" />
        </mxCell>
        <mxCell id="bYb3f7YGl_gzGOZ02LMp-417" value="id" style="shape=partialRectangle;connectable=0;fillColor=none;top=0;left=0;bottom=0;right=0;align=left;spacingLeft=6;fontStyle=5;overflow=hidden;" vertex="1" parent="bYb3f7YGl_gzGOZ02LMp-415">
          <mxGeometry x="30" width="150" height="30" as="geometry" />
        </mxCell>
        <mxCell id="bYb3f7YGl_gzGOZ02LMp-418" value="" style="shape=partialRectangle;collapsible=0;dropTarget=0;pointerEvents=0;fillColor=none;top=0;left=0;bottom=0;right=0;points=[[0,0.5],[1,0.5]];portConstraint=eastwest;" vertex="1" parent="bYb3f7YGl_gzGOZ02LMp-414">
          <mxGeometry y="60" width="180" height="30" as="geometry" />
        </mxCell>
        <mxCell id="bYb3f7YGl_gzGOZ02LMp-419" value="" style="shape=partialRectangle;connectable=0;fillColor=none;top=0;left=0;bottom=0;right=0;editable=1;overflow=hidden;" vertex="1" parent="bYb3f7YGl_gzGOZ02LMp-418">
          <mxGeometry width="30" height="30" as="geometry" />
        </mxCell>
        <mxCell id="bYb3f7YGl_gzGOZ02LMp-420" value="total_price" style="shape=partialRectangle;connectable=0;fillColor=none;top=0;left=0;bottom=0;right=0;align=left;spacingLeft=6;overflow=hidden;" vertex="1" parent="bYb3f7YGl_gzGOZ02LMp-418">
          <mxGeometry x="30" width="150" height="30" as="geometry" />
        </mxCell>
        <mxCell id="bYb3f7YGl_gzGOZ02LMp-421" value="" style="shape=partialRectangle;collapsible=0;dropTarget=0;pointerEvents=0;fillColor=none;top=0;left=0;bottom=0;right=0;points=[[0,0.5],[1,0.5]];portConstraint=eastwest;" vertex="1" parent="bYb3f7YGl_gzGOZ02LMp-414">
          <mxGeometry y="90" width="180" height="30" as="geometry" />
        </mxCell>
        <mxCell id="bYb3f7YGl_gzGOZ02LMp-422" value="" style="shape=partialRectangle;connectable=0;fillColor=none;top=0;left=0;bottom=0;right=0;editable=1;overflow=hidden;" vertex="1" parent="bYb3f7YGl_gzGOZ02LMp-421">
          <mxGeometry width="30" height="30" as="geometry" />
        </mxCell>
        <mxCell id="bYb3f7YGl_gzGOZ02LMp-423" value="provideder_id" style="shape=partialRectangle;connectable=0;fillColor=none;top=0;left=0;bottom=0;right=0;align=left;spacingLeft=6;overflow=hidden;" vertex="1" parent="bYb3f7YGl_gzGOZ02LMp-421">
          <mxGeometry x="30" width="150" height="30" as="geometry" />
        </mxCell>
        <mxCell id="bYb3f7YGl_gzGOZ02LMp-424" value="" style="shape=partialRectangle;collapsible=0;dropTarget=0;pointerEvents=0;fillColor=none;top=0;left=0;bottom=0;right=0;points=[[0,0.5],[1,0.5]];portConstraint=eastwest;" vertex="1" parent="bYb3f7YGl_gzGOZ02LMp-414">
          <mxGeometry y="120" width="180" height="30" as="geometry" />
        </mxCell>
        <mxCell id="bYb3f7YGl_gzGOZ02LMp-425" value="" style="shape=partialRectangle;connectable=0;fillColor=none;top=0;left=0;bottom=0;right=0;editable=1;overflow=hidden;" vertex="1" parent="bYb3f7YGl_gzGOZ02LMp-424">
          <mxGeometry width="30" height="30" as="geometry" />
        </mxCell>
        <mxCell id="bYb3f7YGl_gzGOZ02LMp-426" value="user_id" style="shape=partialRectangle;connectable=0;fillColor=none;top=0;left=0;bottom=0;right=0;align=left;spacingLeft=6;overflow=hidden;" vertex="1" parent="bYb3f7YGl_gzGOZ02LMp-424">
          <mxGeometry x="30" width="150" height="30" as="geometry" />
        </mxCell>
        <mxCell id="bYb3f7YGl_gzGOZ02LMp-427" value="" style="shape=partialRectangle;collapsible=0;dropTarget=0;pointerEvents=0;fillColor=none;top=0;left=0;bottom=0;right=0;points=[[0,0.5],[1,0.5]];portConstraint=eastwest;" vertex="1" parent="bYb3f7YGl_gzGOZ02LMp-414">
          <mxGeometry y="150" width="180" height="30" as="geometry" />
        </mxCell>
        <mxCell id="bYb3f7YGl_gzGOZ02LMp-428" value="" style="shape=partialRectangle;connectable=0;fillColor=none;top=0;left=0;bottom=0;right=0;editable=1;overflow=hidden;" vertex="1" parent="bYb3f7YGl_gzGOZ02LMp-427">
          <mxGeometry width="30" height="30" as="geometry" />
        </mxCell>
        <mxCell id="bYb3f7YGl_gzGOZ02LMp-429" value="status" style="shape=partialRectangle;connectable=0;fillColor=none;top=0;left=0;bottom=0;right=0;align=left;spacingLeft=6;overflow=hidden;" vertex="1" parent="bYb3f7YGl_gzGOZ02LMp-427">
          <mxGeometry x="30" width="150" height="30" as="geometry" />
        </mxCell>
        <mxCell id="bYb3f7YGl_gzGOZ02LMp-430" value="" style="shape=partialRectangle;collapsible=0;dropTarget=0;pointerEvents=0;fillColor=none;top=0;left=0;bottom=0;right=0;points=[[0,0.5],[1,0.5]];portConstraint=eastwest;" vertex="1" parent="bYb3f7YGl_gzGOZ02LMp-414">
          <mxGeometry y="180" width="180" height="30" as="geometry" />
        </mxCell>
        <mxCell id="bYb3f7YGl_gzGOZ02LMp-431" value="" style="shape=partialRectangle;connectable=0;fillColor=none;top=0;left=0;bottom=0;right=0;editable=1;overflow=hidden;" vertex="1" parent="bYb3f7YGl_gzGOZ02LMp-430">
          <mxGeometry width="30" height="30" as="geometry" />
        </mxCell>
        <mxCell id="bYb3f7YGl_gzGOZ02LMp-432" value="created_at" style="shape=partialRectangle;connectable=0;fillColor=none;top=0;left=0;bottom=0;right=0;align=left;spacingLeft=6;overflow=hidden;" vertex="1" parent="bYb3f7YGl_gzGOZ02LMp-430">
          <mxGeometry x="30" width="150" height="30" as="geometry" />
        </mxCell>
        <mxCell id="bYb3f7YGl_gzGOZ02LMp-433" value="" style="shape=partialRectangle;collapsible=0;dropTarget=0;pointerEvents=0;fillColor=none;top=0;left=0;bottom=0;right=0;points=[[0,0.5],[1,0.5]];portConstraint=eastwest;" vertex="1" parent="bYb3f7YGl_gzGOZ02LMp-414">
          <mxGeometry y="210" width="180" height="30" as="geometry" />
        </mxCell>
        <mxCell id="bYb3f7YGl_gzGOZ02LMp-434" value="" style="shape=partialRectangle;connectable=0;fillColor=none;top=0;left=0;bottom=0;right=0;editable=1;overflow=hidden;" vertex="1" parent="bYb3f7YGl_gzGOZ02LMp-433">
          <mxGeometry width="30" height="30" as="geometry" />
        </mxCell>
        <mxCell id="bYb3f7YGl_gzGOZ02LMp-435" value="updated_at" style="shape=partialRectangle;connectable=0;fillColor=none;top=0;left=0;bottom=0;right=0;align=left;spacingLeft=6;overflow=hidden;" vertex="1" parent="bYb3f7YGl_gzGOZ02LMp-433">
          <mxGeometry x="30" width="150" height="30" as="geometry" />
        </mxCell>
        <mxCell id="bYb3f7YGl_gzGOZ02LMp-436" value="bill_details" style="shape=table;startSize=30;container=1;collapsible=1;childLayout=tableLayout;fixedRows=1;rowLines=0;fontStyle=1;align=center;resizeLast=1;" vertex="1" parent="1">
          <mxGeometry x="200" y="-140" width="180" height="280" as="geometry" />
        </mxCell>
        <mxCell id="bYb3f7YGl_gzGOZ02LMp-437" value="" style="shape=partialRectangle;collapsible=0;dropTarget=0;pointerEvents=0;fillColor=none;top=0;left=0;bottom=1;right=0;points=[[0,0.5],[1,0.5]];portConstraint=eastwest;" vertex="1" parent="bYb3f7YGl_gzGOZ02LMp-436">
          <mxGeometry y="30" width="180" height="30" as="geometry" />
        </mxCell>
        <mxCell id="bYb3f7YGl_gzGOZ02LMp-438" value="PK" style="shape=partialRectangle;connectable=0;fillColor=none;top=0;left=0;bottom=0;right=0;fontStyle=1;overflow=hidden;" vertex="1" parent="bYb3f7YGl_gzGOZ02LMp-437">
          <mxGeometry width="30" height="30" as="geometry" />
        </mxCell>
        <mxCell id="bYb3f7YGl_gzGOZ02LMp-439" value="id" style="shape=partialRectangle;connectable=0;fillColor=none;top=0;left=0;bottom=0;right=0;align=left;spacingLeft=6;fontStyle=5;overflow=hidden;" vertex="1" parent="bYb3f7YGl_gzGOZ02LMp-437">
          <mxGeometry x="30" width="150" height="30" as="geometry" />
        </mxCell>
        <mxCell id="bYb3f7YGl_gzGOZ02LMp-440" value="" style="shape=partialRectangle;collapsible=0;dropTarget=0;pointerEvents=0;fillColor=none;top=0;left=0;bottom=0;right=0;points=[[0,0.5],[1,0.5]];portConstraint=eastwest;" vertex="1" parent="bYb3f7YGl_gzGOZ02LMp-436">
          <mxGeometry y="60" width="180" height="30" as="geometry" />
        </mxCell>
        <mxCell id="bYb3f7YGl_gzGOZ02LMp-441" value="FK" style="shape=partialRectangle;connectable=0;fillColor=none;top=0;left=0;bottom=0;right=0;editable=1;overflow=hidden;" vertex="1" parent="bYb3f7YGl_gzGOZ02LMp-440">
          <mxGeometry width="30" height="30" as="geometry" />
        </mxCell>
        <mxCell id="bYb3f7YGl_gzGOZ02LMp-442" value="bill_id" style="shape=partialRectangle;connectable=0;fillColor=none;top=0;left=0;bottom=0;right=0;align=left;spacingLeft=6;overflow=hidden;" vertex="1" parent="bYb3f7YGl_gzGOZ02LMp-440">
          <mxGeometry x="30" width="150" height="30" as="geometry" />
        </mxCell>
        <mxCell id="bYb3f7YGl_gzGOZ02LMp-443" value="" style="shape=partialRectangle;collapsible=0;dropTarget=0;pointerEvents=0;fillColor=none;top=0;left=0;bottom=0;right=0;points=[[0,0.5],[1,0.5]];portConstraint=eastwest;" vertex="1" parent="bYb3f7YGl_gzGOZ02LMp-436">
          <mxGeometry y="90" width="180" height="30" as="geometry" />
        </mxCell>
        <mxCell id="bYb3f7YGl_gzGOZ02LMp-444" value="FK" style="shape=partialRectangle;connectable=0;fillColor=none;top=0;left=0;bottom=0;right=0;editable=1;overflow=hidden;" vertex="1" parent="bYb3f7YGl_gzGOZ02LMp-443">
          <mxGeometry width="30" height="30" as="geometry" />
        </mxCell>
        <mxCell id="bYb3f7YGl_gzGOZ02LMp-445" value="product_id" style="shape=partialRectangle;connectable=0;fillColor=none;top=0;left=0;bottom=0;right=0;align=left;spacingLeft=6;overflow=hidden;" vertex="1" parent="bYb3f7YGl_gzGOZ02LMp-443">
          <mxGeometry x="30" width="150" height="30" as="geometry" />
        </mxCell>
        <mxCell id="bYb3f7YGl_gzGOZ02LMp-446" value="" style="shape=partialRectangle;collapsible=0;dropTarget=0;pointerEvents=0;fillColor=none;top=0;left=0;bottom=0;right=0;points=[[0,0.5],[1,0.5]];portConstraint=eastwest;" vertex="1" parent="bYb3f7YGl_gzGOZ02LMp-436">
          <mxGeometry y="120" width="180" height="30" as="geometry" />
        </mxCell>
        <mxCell id="bYb3f7YGl_gzGOZ02LMp-447" value="" style="shape=partialRectangle;connectable=0;fillColor=none;top=0;left=0;bottom=0;right=0;editable=1;overflow=hidden;" vertex="1" parent="bYb3f7YGl_gzGOZ02LMp-446">
          <mxGeometry width="30" height="30" as="geometry" />
        </mxCell>
        <mxCell id="bYb3f7YGl_gzGOZ02LMp-448" value="qty" style="shape=partialRectangle;connectable=0;fillColor=none;top=0;left=0;bottom=0;right=0;align=left;spacingLeft=6;overflow=hidden;" vertex="1" parent="bYb3f7YGl_gzGOZ02LMp-446">
          <mxGeometry x="30" width="150" height="30" as="geometry" />
        </mxCell>
        <mxCell id="bYb3f7YGl_gzGOZ02LMp-449" value="" style="shape=partialRectangle;collapsible=0;dropTarget=0;pointerEvents=0;fillColor=none;top=0;left=0;bottom=0;right=0;points=[[0,0.5],[1,0.5]];portConstraint=eastwest;" vertex="1" parent="bYb3f7YGl_gzGOZ02LMp-436">
          <mxGeometry y="150" width="180" height="30" as="geometry" />
        </mxCell>
        <mxCell id="bYb3f7YGl_gzGOZ02LMp-450" value="" style="shape=partialRectangle;connectable=0;fillColor=none;top=0;left=0;bottom=0;right=0;editable=1;overflow=hidden;" vertex="1" parent="bYb3f7YGl_gzGOZ02LMp-449">
          <mxGeometry width="30" height="30" as="geometry" />
        </mxCell>
        <mxCell id="bYb3f7YGl_gzGOZ02LMp-451" value="price" style="shape=partialRectangle;connectable=0;fillColor=none;top=0;left=0;bottom=0;right=0;align=left;spacingLeft=6;overflow=hidden;" vertex="1" parent="bYb3f7YGl_gzGOZ02LMp-449">
          <mxGeometry x="30" width="150" height="30" as="geometry" />
        </mxCell>
        <mxCell id="bYb3f7YGl_gzGOZ02LMp-452" value="" style="shape=partialRectangle;collapsible=0;dropTarget=0;pointerEvents=0;fillColor=none;top=0;left=0;bottom=0;right=0;points=[[0,0.5],[1,0.5]];portConstraint=eastwest;" vertex="1" parent="bYb3f7YGl_gzGOZ02LMp-436">
          <mxGeometry y="180" width="180" height="30" as="geometry" />
        </mxCell>
        <mxCell id="bYb3f7YGl_gzGOZ02LMp-453" value="" style="shape=partialRectangle;connectable=0;fillColor=none;top=0;left=0;bottom=0;right=0;editable=1;overflow=hidden;" vertex="1" parent="bYb3f7YGl_gzGOZ02LMp-452">
          <mxGeometry width="30" height="30" as="geometry" />
        </mxCell>
        <mxCell id="bYb3f7YGl_gzGOZ02LMp-454" value="status" style="shape=partialRectangle;connectable=0;fillColor=none;top=0;left=0;bottom=0;right=0;align=left;spacingLeft=6;overflow=hidden;" vertex="1" parent="bYb3f7YGl_gzGOZ02LMp-452">
          <mxGeometry x="30" width="150" height="30" as="geometry" />
        </mxCell>
        <mxCell id="bYb3f7YGl_gzGOZ02LMp-455" value="" style="shape=partialRectangle;collapsible=0;dropTarget=0;pointerEvents=0;fillColor=none;top=0;left=0;bottom=0;right=0;points=[[0,0.5],[1,0.5]];portConstraint=eastwest;" vertex="1" parent="bYb3f7YGl_gzGOZ02LMp-436">
          <mxGeometry y="210" width="180" height="30" as="geometry" />
        </mxCell>
        <mxCell id="bYb3f7YGl_gzGOZ02LMp-456" value="" style="shape=partialRectangle;connectable=0;fillColor=none;top=0;left=0;bottom=0;right=0;editable=1;overflow=hidden;" vertex="1" parent="bYb3f7YGl_gzGOZ02LMp-455">
          <mxGeometry width="30" height="30" as="geometry" />
        </mxCell>
        <mxCell id="bYb3f7YGl_gzGOZ02LMp-457" value="created_at" style="shape=partialRectangle;connectable=0;fillColor=none;top=0;left=0;bottom=0;right=0;align=left;spacingLeft=6;overflow=hidden;" vertex="1" parent="bYb3f7YGl_gzGOZ02LMp-455">
          <mxGeometry x="30" width="150" height="30" as="geometry" />
        </mxCell>
        <mxCell id="bYb3f7YGl_gzGOZ02LMp-458" value="" style="shape=partialRectangle;collapsible=0;dropTarget=0;pointerEvents=0;fillColor=none;top=0;left=0;bottom=0;right=0;points=[[0,0.5],[1,0.5]];portConstraint=eastwest;" vertex="1" parent="bYb3f7YGl_gzGOZ02LMp-436">
          <mxGeometry y="240" width="180" height="30" as="geometry" />
        </mxCell>
        <mxCell id="bYb3f7YGl_gzGOZ02LMp-459" value="" style="shape=partialRectangle;connectable=0;fillColor=none;top=0;left=0;bottom=0;right=0;editable=1;overflow=hidden;" vertex="1" parent="bYb3f7YGl_gzGOZ02LMp-458">
          <mxGeometry width="30" height="30" as="geometry" />
        </mxCell>
        <mxCell id="bYb3f7YGl_gzGOZ02LMp-460" value="updated_at" style="shape=partialRectangle;connectable=0;fillColor=none;top=0;left=0;bottom=0;right=0;align=left;spacingLeft=6;overflow=hidden;" vertex="1" parent="bYb3f7YGl_gzGOZ02LMp-458">
          <mxGeometry x="30" width="150" height="30" as="geometry" />
        </mxCell>
        <mxCell id="bYb3f7YGl_gzGOZ02LMp-461" value="orders" style="shape=table;startSize=30;container=1;collapsible=1;childLayout=tableLayout;fixedRows=1;rowLines=0;fontStyle=1;align=center;resizeLast=1;" vertex="1" parent="1">
          <mxGeometry x="-50" y="215" width="180" height="250" as="geometry" />
        </mxCell>
        <mxCell id="bYb3f7YGl_gzGOZ02LMp-462" value="" style="shape=partialRectangle;collapsible=0;dropTarget=0;pointerEvents=0;fillColor=none;top=0;left=0;bottom=1;right=0;points=[[0,0.5],[1,0.5]];portConstraint=eastwest;" vertex="1" parent="bYb3f7YGl_gzGOZ02LMp-461">
          <mxGeometry y="30" width="180" height="30" as="geometry" />
        </mxCell>
        <mxCell id="bYb3f7YGl_gzGOZ02LMp-463" value="PK" style="shape=partialRectangle;connectable=0;fillColor=none;top=0;left=0;bottom=0;right=0;fontStyle=1;overflow=hidden;" vertex="1" parent="bYb3f7YGl_gzGOZ02LMp-462">
          <mxGeometry width="30" height="30" as="geometry" />
        </mxCell>
        <mxCell id="bYb3f7YGl_gzGOZ02LMp-464" value="id" style="shape=partialRectangle;connectable=0;fillColor=none;top=0;left=0;bottom=0;right=0;align=left;spacingLeft=6;fontStyle=5;overflow=hidden;" vertex="1" parent="bYb3f7YGl_gzGOZ02LMp-462">
          <mxGeometry x="30" width="150" height="30" as="geometry" />
        </mxCell>
        <mxCell id="bYb3f7YGl_gzGOZ02LMp-465" value="" style="shape=partialRectangle;collapsible=0;dropTarget=0;pointerEvents=0;fillColor=none;top=0;left=0;bottom=0;right=0;points=[[0,0.5],[1,0.5]];portConstraint=eastwest;" vertex="1" parent="bYb3f7YGl_gzGOZ02LMp-461">
          <mxGeometry y="60" width="180" height="30" as="geometry" />
        </mxCell>
        <mxCell id="bYb3f7YGl_gzGOZ02LMp-466" value="" style="shape=partialRectangle;connectable=0;fillColor=none;top=0;left=0;bottom=0;right=0;editable=1;overflow=hidden;" vertex="1" parent="bYb3f7YGl_gzGOZ02LMp-465">
          <mxGeometry width="30" height="30" as="geometry" />
        </mxCell>
        <mxCell id="bYb3f7YGl_gzGOZ02LMp-467" value="total_price" style="shape=partialRectangle;connectable=0;fillColor=none;top=0;left=0;bottom=0;right=0;align=left;spacingLeft=6;overflow=hidden;" vertex="1" parent="bYb3f7YGl_gzGOZ02LMp-465">
          <mxGeometry x="30" width="150" height="30" as="geometry" />
        </mxCell>
        <mxCell id="bYb3f7YGl_gzGOZ02LMp-468" value="" style="shape=partialRectangle;collapsible=0;dropTarget=0;pointerEvents=0;fillColor=none;top=0;left=0;bottom=0;right=0;points=[[0,0.5],[1,0.5]];portConstraint=eastwest;" vertex="1" parent="bYb3f7YGl_gzGOZ02LMp-461">
          <mxGeometry y="90" width="180" height="30" as="geometry" />
        </mxCell>
        <mxCell id="bYb3f7YGl_gzGOZ02LMp-469" value="" style="shape=partialRectangle;connectable=0;fillColor=none;top=0;left=0;bottom=0;right=0;editable=1;overflow=hidden;" vertex="1" parent="bYb3f7YGl_gzGOZ02LMp-468">
          <mxGeometry width="30" height="30" as="geometry" />
        </mxCell>
        <mxCell id="bYb3f7YGl_gzGOZ02LMp-470" value="customer_id" style="shape=partialRectangle;connectable=0;fillColor=none;top=0;left=0;bottom=0;right=0;align=left;spacingLeft=6;overflow=hidden;" vertex="1" parent="bYb3f7YGl_gzGOZ02LMp-468">
          <mxGeometry x="30" width="150" height="30" as="geometry" />
        </mxCell>
        <mxCell id="bYb3f7YGl_gzGOZ02LMp-471" value="" style="shape=partialRectangle;collapsible=0;dropTarget=0;pointerEvents=0;fillColor=none;top=0;left=0;bottom=0;right=0;points=[[0,0.5],[1,0.5]];portConstraint=eastwest;" vertex="1" parent="bYb3f7YGl_gzGOZ02LMp-461">
          <mxGeometry y="120" width="180" height="30" as="geometry" />
        </mxCell>
        <mxCell id="bYb3f7YGl_gzGOZ02LMp-472" value="" style="shape=partialRectangle;connectable=0;fillColor=none;top=0;left=0;bottom=0;right=0;editable=1;overflow=hidden;" vertex="1" parent="bYb3f7YGl_gzGOZ02LMp-471">
          <mxGeometry width="30" height="30" as="geometry" />
        </mxCell>
        <mxCell id="bYb3f7YGl_gzGOZ02LMp-473" value="user_id" style="shape=partialRectangle;connectable=0;fillColor=none;top=0;left=0;bottom=0;right=0;align=left;spacingLeft=6;overflow=hidden;" vertex="1" parent="bYb3f7YGl_gzGOZ02LMp-471">
          <mxGeometry x="30" width="150" height="30" as="geometry" />
        </mxCell>
        <mxCell id="bYb3f7YGl_gzGOZ02LMp-474" value="" style="shape=partialRectangle;collapsible=0;dropTarget=0;pointerEvents=0;fillColor=none;top=0;left=0;bottom=0;right=0;points=[[0,0.5],[1,0.5]];portConstraint=eastwest;" vertex="1" parent="bYb3f7YGl_gzGOZ02LMp-461">
          <mxGeometry y="150" width="180" height="30" as="geometry" />
        </mxCell>
        <mxCell id="bYb3f7YGl_gzGOZ02LMp-475" value="" style="shape=partialRectangle;connectable=0;fillColor=none;top=0;left=0;bottom=0;right=0;editable=1;overflow=hidden;" vertex="1" parent="bYb3f7YGl_gzGOZ02LMp-474">
          <mxGeometry width="30" height="30" as="geometry" />
        </mxCell>
        <mxCell id="bYb3f7YGl_gzGOZ02LMp-476" value="status" style="shape=partialRectangle;connectable=0;fillColor=none;top=0;left=0;bottom=0;right=0;align=left;spacingLeft=6;overflow=hidden;" vertex="1" parent="bYb3f7YGl_gzGOZ02LMp-474">
          <mxGeometry x="30" width="150" height="30" as="geometry" />
        </mxCell>
        <mxCell id="bYb3f7YGl_gzGOZ02LMp-477" value="" style="shape=partialRectangle;collapsible=0;dropTarget=0;pointerEvents=0;fillColor=none;top=0;left=0;bottom=0;right=0;points=[[0,0.5],[1,0.5]];portConstraint=eastwest;" vertex="1" parent="bYb3f7YGl_gzGOZ02LMp-461">
          <mxGeometry y="180" width="180" height="30" as="geometry" />
        </mxCell>
        <mxCell id="bYb3f7YGl_gzGOZ02LMp-478" value="" style="shape=partialRectangle;connectable=0;fillColor=none;top=0;left=0;bottom=0;right=0;editable=1;overflow=hidden;" vertex="1" parent="bYb3f7YGl_gzGOZ02LMp-477">
          <mxGeometry width="30" height="30" as="geometry" />
        </mxCell>
        <mxCell id="bYb3f7YGl_gzGOZ02LMp-479" value="created_at" style="shape=partialRectangle;connectable=0;fillColor=none;top=0;left=0;bottom=0;right=0;align=left;spacingLeft=6;overflow=hidden;" vertex="1" parent="bYb3f7YGl_gzGOZ02LMp-477">
          <mxGeometry x="30" width="150" height="30" as="geometry" />
        </mxCell>
        <mxCell id="bYb3f7YGl_gzGOZ02LMp-480" value="" style="shape=partialRectangle;collapsible=0;dropTarget=0;pointerEvents=0;fillColor=none;top=0;left=0;bottom=0;right=0;points=[[0,0.5],[1,0.5]];portConstraint=eastwest;" vertex="1" parent="bYb3f7YGl_gzGOZ02LMp-461">
          <mxGeometry y="210" width="180" height="30" as="geometry" />
        </mxCell>
        <mxCell id="bYb3f7YGl_gzGOZ02LMp-481" value="" style="shape=partialRectangle;connectable=0;fillColor=none;top=0;left=0;bottom=0;right=0;editable=1;overflow=hidden;" vertex="1" parent="bYb3f7YGl_gzGOZ02LMp-480">
          <mxGeometry width="30" height="30" as="geometry" />
        </mxCell>
        <mxCell id="bYb3f7YGl_gzGOZ02LMp-482" value="updated_at" style="shape=partialRectangle;connectable=0;fillColor=none;top=0;left=0;bottom=0;right=0;align=left;spacingLeft=6;overflow=hidden;" vertex="1" parent="bYb3f7YGl_gzGOZ02LMp-480">
          <mxGeometry x="30" width="150" height="30" as="geometry" />
        </mxCell>
        <mxCell id="bYb3f7YGl_gzGOZ02LMp-483" value="order_details" style="shape=table;startSize=30;container=1;collapsible=1;childLayout=tableLayout;fixedRows=1;rowLines=0;fontStyle=1;align=center;resizeLast=1;" vertex="1" parent="1">
          <mxGeometry x="200" y="165" width="180" height="280" as="geometry" />
        </mxCell>
        <mxCell id="bYb3f7YGl_gzGOZ02LMp-484" value="" style="shape=partialRectangle;collapsible=0;dropTarget=0;pointerEvents=0;fillColor=none;top=0;left=0;bottom=1;right=0;points=[[0,0.5],[1,0.5]];portConstraint=eastwest;" vertex="1" parent="bYb3f7YGl_gzGOZ02LMp-483">
          <mxGeometry y="30" width="180" height="30" as="geometry" />
        </mxCell>
        <mxCell id="bYb3f7YGl_gzGOZ02LMp-485" value="PK" style="shape=partialRectangle;connectable=0;fillColor=none;top=0;left=0;bottom=0;right=0;fontStyle=1;overflow=hidden;" vertex="1" parent="bYb3f7YGl_gzGOZ02LMp-484">
          <mxGeometry width="30" height="30" as="geometry" />
        </mxCell>
        <mxCell id="bYb3f7YGl_gzGOZ02LMp-486" value="id" style="shape=partialRectangle;connectable=0;fillColor=none;top=0;left=0;bottom=0;right=0;align=left;spacingLeft=6;fontStyle=5;overflow=hidden;" vertex="1" parent="bYb3f7YGl_gzGOZ02LMp-484">
          <mxGeometry x="30" width="150" height="30" as="geometry" />
        </mxCell>
        <mxCell id="bYb3f7YGl_gzGOZ02LMp-487" value="" style="shape=partialRectangle;collapsible=0;dropTarget=0;pointerEvents=0;fillColor=none;top=0;left=0;bottom=0;right=0;points=[[0,0.5],[1,0.5]];portConstraint=eastwest;" vertex="1" parent="bYb3f7YGl_gzGOZ02LMp-483">
          <mxGeometry y="60" width="180" height="30" as="geometry" />
        </mxCell>
        <mxCell id="bYb3f7YGl_gzGOZ02LMp-488" value="FK" style="shape=partialRectangle;connectable=0;fillColor=none;top=0;left=0;bottom=0;right=0;editable=1;overflow=hidden;" vertex="1" parent="bYb3f7YGl_gzGOZ02LMp-487">
          <mxGeometry width="30" height="30" as="geometry" />
        </mxCell>
        <mxCell id="bYb3f7YGl_gzGOZ02LMp-489" value="order_id" style="shape=partialRectangle;connectable=0;fillColor=none;top=0;left=0;bottom=0;right=0;align=left;spacingLeft=6;overflow=hidden;" vertex="1" parent="bYb3f7YGl_gzGOZ02LMp-487">
          <mxGeometry x="30" width="150" height="30" as="geometry" />
        </mxCell>
        <mxCell id="bYb3f7YGl_gzGOZ02LMp-490" value="" style="shape=partialRectangle;collapsible=0;dropTarget=0;pointerEvents=0;fillColor=none;top=0;left=0;bottom=0;right=0;points=[[0,0.5],[1,0.5]];portConstraint=eastwest;" vertex="1" parent="bYb3f7YGl_gzGOZ02LMp-483">
          <mxGeometry y="90" width="180" height="30" as="geometry" />
        </mxCell>
        <mxCell id="bYb3f7YGl_gzGOZ02LMp-491" value="FK" style="shape=partialRectangle;connectable=0;fillColor=none;top=0;left=0;bottom=0;right=0;editable=1;overflow=hidden;" vertex="1" parent="bYb3f7YGl_gzGOZ02LMp-490">
          <mxGeometry width="30" height="30" as="geometry" />
        </mxCell>
        <mxCell id="bYb3f7YGl_gzGOZ02LMp-492" value="product_id" style="shape=partialRectangle;connectable=0;fillColor=none;top=0;left=0;bottom=0;right=0;align=left;spacingLeft=6;overflow=hidden;" vertex="1" parent="bYb3f7YGl_gzGOZ02LMp-490">
          <mxGeometry x="30" width="150" height="30" as="geometry" />
        </mxCell>
        <mxCell id="bYb3f7YGl_gzGOZ02LMp-493" value="" style="shape=partialRectangle;collapsible=0;dropTarget=0;pointerEvents=0;fillColor=none;top=0;left=0;bottom=0;right=0;points=[[0,0.5],[1,0.5]];portConstraint=eastwest;" vertex="1" parent="bYb3f7YGl_gzGOZ02LMp-483">
          <mxGeometry y="120" width="180" height="30" as="geometry" />
        </mxCell>
        <mxCell id="bYb3f7YGl_gzGOZ02LMp-494" value="" style="shape=partialRectangle;connectable=0;fillColor=none;top=0;left=0;bottom=0;right=0;editable=1;overflow=hidden;" vertex="1" parent="bYb3f7YGl_gzGOZ02LMp-493">
          <mxGeometry width="30" height="30" as="geometry" />
        </mxCell>
        <mxCell id="bYb3f7YGl_gzGOZ02LMp-495" value="qty" style="shape=partialRectangle;connectable=0;fillColor=none;top=0;left=0;bottom=0;right=0;align=left;spacingLeft=6;overflow=hidden;" vertex="1" parent="bYb3f7YGl_gzGOZ02LMp-493">
          <mxGeometry x="30" width="150" height="30" as="geometry" />
        </mxCell>
        <mxCell id="bYb3f7YGl_gzGOZ02LMp-496" value="" style="shape=partialRectangle;collapsible=0;dropTarget=0;pointerEvents=0;fillColor=none;top=0;left=0;bottom=0;right=0;points=[[0,0.5],[1,0.5]];portConstraint=eastwest;" vertex="1" parent="bYb3f7YGl_gzGOZ02LMp-483">
          <mxGeometry y="150" width="180" height="30" as="geometry" />
        </mxCell>
        <mxCell id="bYb3f7YGl_gzGOZ02LMp-497" value="" style="shape=partialRectangle;connectable=0;fillColor=none;top=0;left=0;bottom=0;right=0;editable=1;overflow=hidden;" vertex="1" parent="bYb3f7YGl_gzGOZ02LMp-496">
          <mxGeometry width="30" height="30" as="geometry" />
        </mxCell>
        <mxCell id="bYb3f7YGl_gzGOZ02LMp-498" value="price" style="shape=partialRectangle;connectable=0;fillColor=none;top=0;left=0;bottom=0;right=0;align=left;spacingLeft=6;overflow=hidden;" vertex="1" parent="bYb3f7YGl_gzGOZ02LMp-496">
          <mxGeometry x="30" width="150" height="30" as="geometry" />
        </mxCell>
        <mxCell id="bYb3f7YGl_gzGOZ02LMp-499" value="" style="shape=partialRectangle;collapsible=0;dropTarget=0;pointerEvents=0;fillColor=none;top=0;left=0;bottom=0;right=0;points=[[0,0.5],[1,0.5]];portConstraint=eastwest;" vertex="1" parent="bYb3f7YGl_gzGOZ02LMp-483">
          <mxGeometry y="180" width="180" height="30" as="geometry" />
        </mxCell>
        <mxCell id="bYb3f7YGl_gzGOZ02LMp-500" value="" style="shape=partialRectangle;connectable=0;fillColor=none;top=0;left=0;bottom=0;right=0;editable=1;overflow=hidden;" vertex="1" parent="bYb3f7YGl_gzGOZ02LMp-499">
          <mxGeometry width="30" height="30" as="geometry" />
        </mxCell>
        <mxCell id="bYb3f7YGl_gzGOZ02LMp-501" value="status" style="shape=partialRectangle;connectable=0;fillColor=none;top=0;left=0;bottom=0;right=0;align=left;spacingLeft=6;overflow=hidden;" vertex="1" parent="bYb3f7YGl_gzGOZ02LMp-499">
          <mxGeometry x="30" width="150" height="30" as="geometry" />
        </mxCell>
        <mxCell id="bYb3f7YGl_gzGOZ02LMp-502" value="" style="shape=partialRectangle;collapsible=0;dropTarget=0;pointerEvents=0;fillColor=none;top=0;left=0;bottom=0;right=0;points=[[0,0.5],[1,0.5]];portConstraint=eastwest;" vertex="1" parent="bYb3f7YGl_gzGOZ02LMp-483">
          <mxGeometry y="210" width="180" height="30" as="geometry" />
        </mxCell>
        <mxCell id="bYb3f7YGl_gzGOZ02LMp-503" value="" style="shape=partialRectangle;connectable=0;fillColor=none;top=0;left=0;bottom=0;right=0;editable=1;overflow=hidden;" vertex="1" parent="bYb3f7YGl_gzGOZ02LMp-502">
          <mxGeometry width="30" height="30" as="geometry" />
        </mxCell>
        <mxCell id="bYb3f7YGl_gzGOZ02LMp-504" value="created_at" style="shape=partialRectangle;connectable=0;fillColor=none;top=0;left=0;bottom=0;right=0;align=left;spacingLeft=6;overflow=hidden;" vertex="1" parent="bYb3f7YGl_gzGOZ02LMp-502">
          <mxGeometry x="30" width="150" height="30" as="geometry" />
        </mxCell>
        <mxCell id="bYb3f7YGl_gzGOZ02LMp-505" value="" style="shape=partialRectangle;collapsible=0;dropTarget=0;pointerEvents=0;fillColor=none;top=0;left=0;bottom=0;right=0;points=[[0,0.5],[1,0.5]];portConstraint=eastwest;" vertex="1" parent="bYb3f7YGl_gzGOZ02LMp-483">
          <mxGeometry y="240" width="180" height="30" as="geometry" />
        </mxCell>
        <mxCell id="bYb3f7YGl_gzGOZ02LMp-506" value="" style="shape=partialRectangle;connectable=0;fillColor=none;top=0;left=0;bottom=0;right=0;editable=1;overflow=hidden;" vertex="1" parent="bYb3f7YGl_gzGOZ02LMp-505">
          <mxGeometry width="30" height="30" as="geometry" />
        </mxCell>
        <mxCell id="bYb3f7YGl_gzGOZ02LMp-507" value="updated_at" style="shape=partialRectangle;connectable=0;fillColor=none;top=0;left=0;bottom=0;right=0;align=left;spacingLeft=6;overflow=hidden;" vertex="1" parent="bYb3f7YGl_gzGOZ02LMp-505">
          <mxGeometry x="30" width="150" height="30" as="geometry" />
        </mxCell>
        <mxCell id="bYb3f7YGl_gzGOZ02LMp-508" value="providers" style="shape=table;startSize=30;container=1;collapsible=1;childLayout=tableLayout;fixedRows=1;rowLines=0;fontStyle=1;align=center;resizeLast=1;" vertex="1" parent="1">
          <mxGeometry x="-260" y="-110" width="180" height="250" as="geometry" />
        </mxCell>
        <mxCell id="bYb3f7YGl_gzGOZ02LMp-509" value="" style="shape=partialRectangle;collapsible=0;dropTarget=0;pointerEvents=0;fillColor=none;top=0;left=0;bottom=1;right=0;points=[[0,0.5],[1,0.5]];portConstraint=eastwest;" vertex="1" parent="bYb3f7YGl_gzGOZ02LMp-508">
          <mxGeometry y="30" width="180" height="30" as="geometry" />
        </mxCell>
        <mxCell id="bYb3f7YGl_gzGOZ02LMp-510" value="PK" style="shape=partialRectangle;connectable=0;fillColor=none;top=0;left=0;bottom=0;right=0;fontStyle=1;overflow=hidden;" vertex="1" parent="bYb3f7YGl_gzGOZ02LMp-509">
          <mxGeometry width="30" height="30" as="geometry" />
        </mxCell>
        <mxCell id="bYb3f7YGl_gzGOZ02LMp-511" value="id" style="shape=partialRectangle;connectable=0;fillColor=none;top=0;left=0;bottom=0;right=0;align=left;spacingLeft=6;fontStyle=5;overflow=hidden;" vertex="1" parent="bYb3f7YGl_gzGOZ02LMp-509">
          <mxGeometry x="30" width="150" height="30" as="geometry" />
        </mxCell>
        <mxCell id="bYb3f7YGl_gzGOZ02LMp-512" value="" style="shape=partialRectangle;collapsible=0;dropTarget=0;pointerEvents=0;fillColor=none;top=0;left=0;bottom=0;right=0;points=[[0,0.5],[1,0.5]];portConstraint=eastwest;" vertex="1" parent="bYb3f7YGl_gzGOZ02LMp-508">
          <mxGeometry y="60" width="180" height="30" as="geometry" />
        </mxCell>
        <mxCell id="bYb3f7YGl_gzGOZ02LMp-513" value="" style="shape=partialRectangle;connectable=0;fillColor=none;top=0;left=0;bottom=0;right=0;editable=1;overflow=hidden;" vertex="1" parent="bYb3f7YGl_gzGOZ02LMp-512">
          <mxGeometry width="30" height="30" as="geometry" />
        </mxCell>
        <mxCell id="bYb3f7YGl_gzGOZ02LMp-514" value="name" style="shape=partialRectangle;connectable=0;fillColor=none;top=0;left=0;bottom=0;right=0;align=left;spacingLeft=6;overflow=hidden;" vertex="1" parent="bYb3f7YGl_gzGOZ02LMp-512">
          <mxGeometry x="30" width="150" height="30" as="geometry" />
        </mxCell>
        <mxCell id="bYb3f7YGl_gzGOZ02LMp-515" value="" style="shape=partialRectangle;collapsible=0;dropTarget=0;pointerEvents=0;fillColor=none;top=0;left=0;bottom=0;right=0;points=[[0,0.5],[1,0.5]];portConstraint=eastwest;" vertex="1" parent="bYb3f7YGl_gzGOZ02LMp-508">
          <mxGeometry y="90" width="180" height="30" as="geometry" />
        </mxCell>
        <mxCell id="bYb3f7YGl_gzGOZ02LMp-516" value="" style="shape=partialRectangle;connectable=0;fillColor=none;top=0;left=0;bottom=0;right=0;editable=1;overflow=hidden;" vertex="1" parent="bYb3f7YGl_gzGOZ02LMp-515">
          <mxGeometry width="30" height="30" as="geometry" />
        </mxCell>
        <mxCell id="bYb3f7YGl_gzGOZ02LMp-517" value="phone" style="shape=partialRectangle;connectable=0;fillColor=none;top=0;left=0;bottom=0;right=0;align=left;spacingLeft=6;overflow=hidden;" vertex="1" parent="bYb3f7YGl_gzGOZ02LMp-515">
          <mxGeometry x="30" width="150" height="30" as="geometry" />
        </mxCell>
        <mxCell id="bYb3f7YGl_gzGOZ02LMp-518" value="" style="shape=partialRectangle;collapsible=0;dropTarget=0;pointerEvents=0;fillColor=none;top=0;left=0;bottom=0;right=0;points=[[0,0.5],[1,0.5]];portConstraint=eastwest;" vertex="1" parent="bYb3f7YGl_gzGOZ02LMp-508">
          <mxGeometry y="120" width="180" height="30" as="geometry" />
        </mxCell>
        <mxCell id="bYb3f7YGl_gzGOZ02LMp-519" value="" style="shape=partialRectangle;connectable=0;fillColor=none;top=0;left=0;bottom=0;right=0;editable=1;overflow=hidden;" vertex="1" parent="bYb3f7YGl_gzGOZ02LMp-518">
          <mxGeometry width="30" height="30" as="geometry" />
        </mxCell>
        <mxCell id="bYb3f7YGl_gzGOZ02LMp-520" value="address" style="shape=partialRectangle;connectable=0;fillColor=none;top=0;left=0;bottom=0;right=0;align=left;spacingLeft=6;overflow=hidden;" vertex="1" parent="bYb3f7YGl_gzGOZ02LMp-518">
          <mxGeometry x="30" width="150" height="30" as="geometry" />
        </mxCell>
        <mxCell id="bYb3f7YGl_gzGOZ02LMp-521" value="" style="shape=partialRectangle;collapsible=0;dropTarget=0;pointerEvents=0;fillColor=none;top=0;left=0;bottom=0;right=0;points=[[0,0.5],[1,0.5]];portConstraint=eastwest;" vertex="1" parent="bYb3f7YGl_gzGOZ02LMp-508">
          <mxGeometry y="150" width="180" height="30" as="geometry" />
        </mxCell>
        <mxCell id="bYb3f7YGl_gzGOZ02LMp-522" value="" style="shape=partialRectangle;connectable=0;fillColor=none;top=0;left=0;bottom=0;right=0;editable=1;overflow=hidden;" vertex="1" parent="bYb3f7YGl_gzGOZ02LMp-521">
          <mxGeometry width="30" height="30" as="geometry" />
        </mxCell>
        <mxCell id="bYb3f7YGl_gzGOZ02LMp-523" value="email" style="shape=partialRectangle;connectable=0;fillColor=none;top=0;left=0;bottom=0;right=0;align=left;spacingLeft=6;overflow=hidden;" vertex="1" parent="bYb3f7YGl_gzGOZ02LMp-521">
          <mxGeometry x="30" width="150" height="30" as="geometry" />
        </mxCell>
        <mxCell id="bYb3f7YGl_gzGOZ02LMp-524" value="" style="shape=partialRectangle;collapsible=0;dropTarget=0;pointerEvents=0;fillColor=none;top=0;left=0;bottom=0;right=0;points=[[0,0.5],[1,0.5]];portConstraint=eastwest;" vertex="1" parent="bYb3f7YGl_gzGOZ02LMp-508">
          <mxGeometry y="180" width="180" height="30" as="geometry" />
        </mxCell>
        <mxCell id="bYb3f7YGl_gzGOZ02LMp-525" value="" style="shape=partialRectangle;connectable=0;fillColor=none;top=0;left=0;bottom=0;right=0;editable=1;overflow=hidden;" vertex="1" parent="bYb3f7YGl_gzGOZ02LMp-524">
          <mxGeometry width="30" height="30" as="geometry" />
        </mxCell>
        <mxCell id="bYb3f7YGl_gzGOZ02LMp-526" value="created_at" style="shape=partialRectangle;connectable=0;fillColor=none;top=0;left=0;bottom=0;right=0;align=left;spacingLeft=6;overflow=hidden;" vertex="1" parent="bYb3f7YGl_gzGOZ02LMp-524">
          <mxGeometry x="30" width="150" height="30" as="geometry" />
        </mxCell>
        <mxCell id="bYb3f7YGl_gzGOZ02LMp-527" value="" style="shape=partialRectangle;collapsible=0;dropTarget=0;pointerEvents=0;fillColor=none;top=0;left=0;bottom=0;right=0;points=[[0,0.5],[1,0.5]];portConstraint=eastwest;" vertex="1" parent="bYb3f7YGl_gzGOZ02LMp-508">
          <mxGeometry y="210" width="180" height="30" as="geometry" />
        </mxCell>
        <mxCell id="bYb3f7YGl_gzGOZ02LMp-528" value="" style="shape=partialRectangle;connectable=0;fillColor=none;top=0;left=0;bottom=0;right=0;editable=1;overflow=hidden;" vertex="1" parent="bYb3f7YGl_gzGOZ02LMp-527">
          <mxGeometry width="30" height="30" as="geometry" />
        </mxCell>
        <mxCell id="bYb3f7YGl_gzGOZ02LMp-529" value="update_at" style="shape=partialRectangle;connectable=0;fillColor=none;top=0;left=0;bottom=0;right=0;align=left;spacingLeft=6;overflow=hidden;" vertex="1" parent="bYb3f7YGl_gzGOZ02LMp-527">
          <mxGeometry x="30" width="150" height="30" as="geometry" />
        </mxCell>
        <mxCell id="bYb3f7YGl_gzGOZ02LMp-530" value="customers" style="shape=table;startSize=30;container=1;collapsible=1;childLayout=tableLayout;fixedRows=1;rowLines=0;fontStyle=1;align=center;resizeLast=1;" vertex="1" parent="1">
          <mxGeometry x="-280" y="200" width="180" height="280" as="geometry" />
        </mxCell>
        <mxCell id="bYb3f7YGl_gzGOZ02LMp-531" value="" style="shape=partialRectangle;collapsible=0;dropTarget=0;pointerEvents=0;fillColor=none;top=0;left=0;bottom=1;right=0;points=[[0,0.5],[1,0.5]];portConstraint=eastwest;" vertex="1" parent="bYb3f7YGl_gzGOZ02LMp-530">
          <mxGeometry y="30" width="180" height="30" as="geometry" />
        </mxCell>
        <mxCell id="bYb3f7YGl_gzGOZ02LMp-532" value="PK" style="shape=partialRectangle;connectable=0;fillColor=none;top=0;left=0;bottom=0;right=0;fontStyle=1;overflow=hidden;" vertex="1" parent="bYb3f7YGl_gzGOZ02LMp-531">
          <mxGeometry width="30" height="30" as="geometry" />
        </mxCell>
        <mxCell id="bYb3f7YGl_gzGOZ02LMp-533" value="id" style="shape=partialRectangle;connectable=0;fillColor=none;top=0;left=0;bottom=0;right=0;align=left;spacingLeft=6;fontStyle=5;overflow=hidden;" vertex="1" parent="bYb3f7YGl_gzGOZ02LMp-531">
          <mxGeometry x="30" width="150" height="30" as="geometry" />
        </mxCell>
        <mxCell id="bYb3f7YGl_gzGOZ02LMp-534" value="" style="shape=partialRectangle;collapsible=0;dropTarget=0;pointerEvents=0;fillColor=none;top=0;left=0;bottom=0;right=0;points=[[0,0.5],[1,0.5]];portConstraint=eastwest;" vertex="1" parent="bYb3f7YGl_gzGOZ02LMp-530">
          <mxGeometry y="60" width="180" height="30" as="geometry" />
        </mxCell>
        <mxCell id="bYb3f7YGl_gzGOZ02LMp-535" value="" style="shape=partialRectangle;connectable=0;fillColor=none;top=0;left=0;bottom=0;right=0;editable=1;overflow=hidden;" vertex="1" parent="bYb3f7YGl_gzGOZ02LMp-534">
          <mxGeometry width="30" height="30" as="geometry" />
        </mxCell>
        <mxCell id="bYb3f7YGl_gzGOZ02LMp-536" value="name" style="shape=partialRectangle;connectable=0;fillColor=none;top=0;left=0;bottom=0;right=0;align=left;spacingLeft=6;overflow=hidden;" vertex="1" parent="bYb3f7YGl_gzGOZ02LMp-534">
          <mxGeometry x="30" width="150" height="30" as="geometry" />
        </mxCell>
        <mxCell id="bYb3f7YGl_gzGOZ02LMp-537" value="" style="shape=partialRectangle;collapsible=0;dropTarget=0;pointerEvents=0;fillColor=none;top=0;left=0;bottom=0;right=0;points=[[0,0.5],[1,0.5]];portConstraint=eastwest;" vertex="1" parent="bYb3f7YGl_gzGOZ02LMp-530">
          <mxGeometry y="90" width="180" height="30" as="geometry" />
        </mxCell>
        <mxCell id="bYb3f7YGl_gzGOZ02LMp-538" value="" style="shape=partialRectangle;connectable=0;fillColor=none;top=0;left=0;bottom=0;right=0;editable=1;overflow=hidden;" vertex="1" parent="bYb3f7YGl_gzGOZ02LMp-537">
          <mxGeometry width="30" height="30" as="geometry" />
        </mxCell>
        <mxCell id="bYb3f7YGl_gzGOZ02LMp-539" value="phone" style="shape=partialRectangle;connectable=0;fillColor=none;top=0;left=0;bottom=0;right=0;align=left;spacingLeft=6;overflow=hidden;" vertex="1" parent="bYb3f7YGl_gzGOZ02LMp-537">
          <mxGeometry x="30" width="150" height="30" as="geometry" />
        </mxCell>
        <mxCell id="bYb3f7YGl_gzGOZ02LMp-540" value="" style="shape=partialRectangle;collapsible=0;dropTarget=0;pointerEvents=0;fillColor=none;top=0;left=0;bottom=0;right=0;points=[[0,0.5],[1,0.5]];portConstraint=eastwest;" vertex="1" parent="bYb3f7YGl_gzGOZ02LMp-530">
          <mxGeometry y="120" width="180" height="30" as="geometry" />
        </mxCell>
        <mxCell id="bYb3f7YGl_gzGOZ02LMp-541" value="" style="shape=partialRectangle;connectable=0;fillColor=none;top=0;left=0;bottom=0;right=0;editable=1;overflow=hidden;" vertex="1" parent="bYb3f7YGl_gzGOZ02LMp-540">
          <mxGeometry width="30" height="30" as="geometry" />
        </mxCell>
        <mxCell id="bYb3f7YGl_gzGOZ02LMp-542" value="address" style="shape=partialRectangle;connectable=0;fillColor=none;top=0;left=0;bottom=0;right=0;align=left;spacingLeft=6;overflow=hidden;" vertex="1" parent="bYb3f7YGl_gzGOZ02LMp-540">
          <mxGeometry x="30" width="150" height="30" as="geometry" />
        </mxCell>
        <mxCell id="bYb3f7YGl_gzGOZ02LMp-543" value="" style="shape=partialRectangle;collapsible=0;dropTarget=0;pointerEvents=0;fillColor=none;top=0;left=0;bottom=0;right=0;points=[[0,0.5],[1,0.5]];portConstraint=eastwest;" vertex="1" parent="bYb3f7YGl_gzGOZ02LMp-530">
          <mxGeometry y="150" width="180" height="30" as="geometry" />
        </mxCell>
        <mxCell id="bYb3f7YGl_gzGOZ02LMp-544" value="" style="shape=partialRectangle;connectable=0;fillColor=none;top=0;left=0;bottom=0;right=0;editable=1;overflow=hidden;" vertex="1" parent="bYb3f7YGl_gzGOZ02LMp-543">
          <mxGeometry width="30" height="30" as="geometry" />
        </mxCell>
        <mxCell id="bYb3f7YGl_gzGOZ02LMp-545" value="email" style="shape=partialRectangle;connectable=0;fillColor=none;top=0;left=0;bottom=0;right=0;align=left;spacingLeft=6;overflow=hidden;" vertex="1" parent="bYb3f7YGl_gzGOZ02LMp-543">
          <mxGeometry x="30" width="150" height="30" as="geometry" />
        </mxCell>
        <mxCell id="bYb3f7YGl_gzGOZ02LMp-546" value="" style="shape=partialRectangle;collapsible=0;dropTarget=0;pointerEvents=0;fillColor=none;top=0;left=0;bottom=0;right=0;points=[[0,0.5],[1,0.5]];portConstraint=eastwest;" vertex="1" parent="bYb3f7YGl_gzGOZ02LMp-530">
          <mxGeometry y="180" width="180" height="30" as="geometry" />
        </mxCell>
        <mxCell id="bYb3f7YGl_gzGOZ02LMp-547" value="" style="shape=partialRectangle;connectable=0;fillColor=none;top=0;left=0;bottom=0;right=0;editable=1;overflow=hidden;" vertex="1" parent="bYb3f7YGl_gzGOZ02LMp-546">
          <mxGeometry width="30" height="30" as="geometry" />
        </mxCell>
        <mxCell id="bYb3f7YGl_gzGOZ02LMp-548" value="created_at" style="shape=partialRectangle;connectable=0;fillColor=none;top=0;left=0;bottom=0;right=0;align=left;spacingLeft=6;overflow=hidden;" vertex="1" parent="bYb3f7YGl_gzGOZ02LMp-546">
          <mxGeometry x="30" width="150" height="30" as="geometry" />
        </mxCell>
        <mxCell id="bYb3f7YGl_gzGOZ02LMp-549" value="" style="shape=partialRectangle;collapsible=0;dropTarget=0;pointerEvents=0;fillColor=none;top=0;left=0;bottom=0;right=0;points=[[0,0.5],[1,0.5]];portConstraint=eastwest;" vertex="1" parent="bYb3f7YGl_gzGOZ02LMp-530">
          <mxGeometry y="210" width="180" height="30" as="geometry" />
        </mxCell>
        <mxCell id="bYb3f7YGl_gzGOZ02LMp-550" value="" style="shape=partialRectangle;connectable=0;fillColor=none;top=0;left=0;bottom=0;right=0;editable=1;overflow=hidden;" vertex="1" parent="bYb3f7YGl_gzGOZ02LMp-549">
          <mxGeometry width="30" height="30" as="geometry" />
        </mxCell>
        <mxCell id="bYb3f7YGl_gzGOZ02LMp-551" value="update_at" style="shape=partialRectangle;connectable=0;fillColor=none;top=0;left=0;bottom=0;right=0;align=left;spacingLeft=6;overflow=hidden;" vertex="1" parent="bYb3f7YGl_gzGOZ02LMp-549">
          <mxGeometry x="30" width="150" height="30" as="geometry" />
        </mxCell>
        <mxCell id="bYb3f7YGl_gzGOZ02LMp-552" value="" style="shape=partialRectangle;collapsible=0;dropTarget=0;pointerEvents=0;fillColor=none;top=0;left=0;bottom=0;right=0;points=[[0,0.5],[1,0.5]];portConstraint=eastwest;" vertex="1" parent="bYb3f7YGl_gzGOZ02LMp-530">
          <mxGeometry y="240" width="180" height="30" as="geometry" />
        </mxCell>
        <mxCell id="bYb3f7YGl_gzGOZ02LMp-553" value="" style="shape=partialRectangle;connectable=0;fillColor=none;top=0;left=0;bottom=0;right=0;editable=1;overflow=hidden;" vertex="1" parent="bYb3f7YGl_gzGOZ02LMp-552">
          <mxGeometry width="30" height="30" as="geometry" />
        </mxCell>
        <mxCell id="bYb3f7YGl_gzGOZ02LMp-554" value="note" style="shape=partialRectangle;connectable=0;fillColor=none;top=0;left=0;bottom=0;right=0;align=left;spacingLeft=6;overflow=hidden;" vertex="1" parent="bYb3f7YGl_gzGOZ02LMp-552">
          <mxGeometry x="30" width="150" height="30" as="geometry" />
        </mxCell>
        <mxCell id="bYb3f7YGl_gzGOZ02LMp-555" value="banners" style="shape=table;startSize=30;container=1;collapsible=1;childLayout=tableLayout;fixedRows=1;rowLines=0;fontStyle=1;align=center;resizeLast=1;" vertex="1" parent="1">
          <mxGeometry x="430" y="-290" width="180" height="280" as="geometry" />
        </mxCell>
        <mxCell id="bYb3f7YGl_gzGOZ02LMp-556" value="" style="shape=partialRectangle;collapsible=0;dropTarget=0;pointerEvents=0;fillColor=none;top=0;left=0;bottom=1;right=0;points=[[0,0.5],[1,0.5]];portConstraint=eastwest;" vertex="1" parent="bYb3f7YGl_gzGOZ02LMp-555">
          <mxGeometry y="30" width="180" height="30" as="geometry" />
        </mxCell>
        <mxCell id="bYb3f7YGl_gzGOZ02LMp-557" value="PK" style="shape=partialRectangle;connectable=0;fillColor=none;top=0;left=0;bottom=0;right=0;fontStyle=1;overflow=hidden;" vertex="1" parent="bYb3f7YGl_gzGOZ02LMp-556">
          <mxGeometry width="30" height="30" as="geometry" />
        </mxCell>
        <mxCell id="bYb3f7YGl_gzGOZ02LMp-558" value="id" style="shape=partialRectangle;connectable=0;fillColor=none;top=0;left=0;bottom=0;right=0;align=left;spacingLeft=6;fontStyle=5;overflow=hidden;" vertex="1" parent="bYb3f7YGl_gzGOZ02LMp-556">
          <mxGeometry x="30" width="150" height="30" as="geometry" />
        </mxCell>
        <mxCell id="bYb3f7YGl_gzGOZ02LMp-559" value="" style="shape=partialRectangle;collapsible=0;dropTarget=0;pointerEvents=0;fillColor=none;top=0;left=0;bottom=0;right=0;points=[[0,0.5],[1,0.5]];portConstraint=eastwest;" vertex="1" parent="bYb3f7YGl_gzGOZ02LMp-555">
          <mxGeometry y="60" width="180" height="30" as="geometry" />
        </mxCell>
        <mxCell id="bYb3f7YGl_gzGOZ02LMp-560" value="" style="shape=partialRectangle;connectable=0;fillColor=none;top=0;left=0;bottom=0;right=0;editable=1;overflow=hidden;" vertex="1" parent="bYb3f7YGl_gzGOZ02LMp-559">
          <mxGeometry width="30" height="30" as="geometry" />
        </mxCell>
        <mxCell id="bYb3f7YGl_gzGOZ02LMp-561" value="name" style="shape=partialRectangle;connectable=0;fillColor=none;top=0;left=0;bottom=0;right=0;align=left;spacingLeft=6;overflow=hidden;" vertex="1" parent="bYb3f7YGl_gzGOZ02LMp-559">
          <mxGeometry x="30" width="150" height="30" as="geometry" />
        </mxCell>
        <mxCell id="bYb3f7YGl_gzGOZ02LMp-562" value="" style="shape=partialRectangle;collapsible=0;dropTarget=0;pointerEvents=0;fillColor=none;top=0;left=0;bottom=0;right=0;points=[[0,0.5],[1,0.5]];portConstraint=eastwest;" vertex="1" parent="bYb3f7YGl_gzGOZ02LMp-555">
          <mxGeometry y="90" width="180" height="30" as="geometry" />
        </mxCell>
        <mxCell id="bYb3f7YGl_gzGOZ02LMp-563" value="" style="shape=partialRectangle;connectable=0;fillColor=none;top=0;left=0;bottom=0;right=0;editable=1;overflow=hidden;" vertex="1" parent="bYb3f7YGl_gzGOZ02LMp-562">
          <mxGeometry width="30" height="30" as="geometry" />
        </mxCell>
        <mxCell id="bYb3f7YGl_gzGOZ02LMp-564" value="img" style="shape=partialRectangle;connectable=0;fillColor=none;top=0;left=0;bottom=0;right=0;align=left;spacingLeft=6;overflow=hidden;" vertex="1" parent="bYb3f7YGl_gzGOZ02LMp-562">
          <mxGeometry x="30" width="150" height="30" as="geometry" />
        </mxCell>
        <mxCell id="bYb3f7YGl_gzGOZ02LMp-565" value="" style="shape=partialRectangle;collapsible=0;dropTarget=0;pointerEvents=0;fillColor=none;top=0;left=0;bottom=0;right=0;points=[[0,0.5],[1,0.5]];portConstraint=eastwest;" vertex="1" parent="bYb3f7YGl_gzGOZ02LMp-555">
          <mxGeometry y="120" width="180" height="30" as="geometry" />
        </mxCell>
        <mxCell id="bYb3f7YGl_gzGOZ02LMp-566" value="" style="shape=partialRectangle;connectable=0;fillColor=none;top=0;left=0;bottom=0;right=0;editable=1;overflow=hidden;" vertex="1" parent="bYb3f7YGl_gzGOZ02LMp-565">
          <mxGeometry width="30" height="30" as="geometry" />
        </mxCell>
        <mxCell id="bYb3f7YGl_gzGOZ02LMp-567" value="url" style="shape=partialRectangle;connectable=0;fillColor=none;top=0;left=0;bottom=0;right=0;align=left;spacingLeft=6;overflow=hidden;" vertex="1" parent="bYb3f7YGl_gzGOZ02LMp-565">
          <mxGeometry x="30" width="150" height="30" as="geometry" />
        </mxCell>
        <mxCell id="bYb3f7YGl_gzGOZ02LMp-568" value="" style="shape=partialRectangle;collapsible=0;dropTarget=0;pointerEvents=0;fillColor=none;top=0;left=0;bottom=0;right=0;points=[[0,0.5],[1,0.5]];portConstraint=eastwest;" vertex="1" parent="bYb3f7YGl_gzGOZ02LMp-555">
          <mxGeometry y="150" width="180" height="30" as="geometry" />
        </mxCell>
        <mxCell id="bYb3f7YGl_gzGOZ02LMp-569" value="" style="shape=partialRectangle;connectable=0;fillColor=none;top=0;left=0;bottom=0;right=0;editable=1;overflow=hidden;" vertex="1" parent="bYb3f7YGl_gzGOZ02LMp-568">
          <mxGeometry width="30" height="30" as="geometry" />
        </mxCell>
        <mxCell id="bYb3f7YGl_gzGOZ02LMp-570" value="status" style="shape=partialRectangle;connectable=0;fillColor=none;top=0;left=0;bottom=0;right=0;align=left;spacingLeft=6;overflow=hidden;" vertex="1" parent="bYb3f7YGl_gzGOZ02LMp-568">
          <mxGeometry x="30" width="150" height="30" as="geometry" />
        </mxCell>
        <mxCell id="bYb3f7YGl_gzGOZ02LMp-571" value="" style="shape=partialRectangle;collapsible=0;dropTarget=0;pointerEvents=0;fillColor=none;top=0;left=0;bottom=0;right=0;points=[[0,0.5],[1,0.5]];portConstraint=eastwest;" vertex="1" parent="bYb3f7YGl_gzGOZ02LMp-555">
          <mxGeometry y="180" width="180" height="30" as="geometry" />
        </mxCell>
        <mxCell id="bYb3f7YGl_gzGOZ02LMp-572" value="" style="shape=partialRectangle;connectable=0;fillColor=none;top=0;left=0;bottom=0;right=0;editable=1;overflow=hidden;" vertex="1" parent="bYb3f7YGl_gzGOZ02LMp-571">
          <mxGeometry width="30" height="30" as="geometry" />
        </mxCell>
        <mxCell id="bYb3f7YGl_gzGOZ02LMp-573" value="user_id" style="shape=partialRectangle;connectable=0;fillColor=none;top=0;left=0;bottom=0;right=0;align=left;spacingLeft=6;overflow=hidden;" vertex="1" parent="bYb3f7YGl_gzGOZ02LMp-571">
          <mxGeometry x="30" width="150" height="30" as="geometry" />
        </mxCell>
        <mxCell id="bYb3f7YGl_gzGOZ02LMp-574" value="" style="shape=partialRectangle;collapsible=0;dropTarget=0;pointerEvents=0;fillColor=none;top=0;left=0;bottom=0;right=0;points=[[0,0.5],[1,0.5]];portConstraint=eastwest;" vertex="1" parent="bYb3f7YGl_gzGOZ02LMp-555">
          <mxGeometry y="210" width="180" height="30" as="geometry" />
        </mxCell>
        <mxCell id="bYb3f7YGl_gzGOZ02LMp-575" value="" style="shape=partialRectangle;connectable=0;fillColor=none;top=0;left=0;bottom=0;right=0;editable=1;overflow=hidden;" vertex="1" parent="bYb3f7YGl_gzGOZ02LMp-574">
          <mxGeometry width="30" height="30" as="geometry" />
        </mxCell>
        <mxCell id="bYb3f7YGl_gzGOZ02LMp-576" value="created_at" style="shape=partialRectangle;connectable=0;fillColor=none;top=0;left=0;bottom=0;right=0;align=left;spacingLeft=6;overflow=hidden;" vertex="1" parent="bYb3f7YGl_gzGOZ02LMp-574">
          <mxGeometry x="30" width="150" height="30" as="geometry" />
        </mxCell>
        <mxCell id="bYb3f7YGl_gzGOZ02LMp-577" value="" style="shape=partialRectangle;collapsible=0;dropTarget=0;pointerEvents=0;fillColor=none;top=0;left=0;bottom=0;right=0;points=[[0,0.5],[1,0.5]];portConstraint=eastwest;" vertex="1" parent="bYb3f7YGl_gzGOZ02LMp-555">
          <mxGeometry y="240" width="180" height="30" as="geometry" />
        </mxCell>
        <mxCell id="bYb3f7YGl_gzGOZ02LMp-578" value="" style="shape=partialRectangle;connectable=0;fillColor=none;top=0;left=0;bottom=0;right=0;editable=1;overflow=hidden;" vertex="1" parent="bYb3f7YGl_gzGOZ02LMp-577">
          <mxGeometry width="30" height="30" as="geometry" />
        </mxCell>
        <mxCell id="bYb3f7YGl_gzGOZ02LMp-579" value="updated_at" style="shape=partialRectangle;connectable=0;fillColor=none;top=0;left=0;bottom=0;right=0;align=left;spacingLeft=6;overflow=hidden;" vertex="1" parent="bYb3f7YGl_gzGOZ02LMp-577">
          <mxGeometry x="30" width="150" height="30" as="geometry" />
        </mxCell>
        <mxCell id="bYb3f7YGl_gzGOZ02LMp-580" value="blogs" style="shape=table;startSize=30;container=1;collapsible=1;childLayout=tableLayout;fixedRows=1;rowLines=0;fontStyle=1;align=center;resizeLast=1;" vertex="1" parent="1">
          <mxGeometry x="650" y="105" width="180" height="340" as="geometry" />
        </mxCell>
        <mxCell id="bYb3f7YGl_gzGOZ02LMp-581" value="" style="shape=partialRectangle;collapsible=0;dropTarget=0;pointerEvents=0;fillColor=none;top=0;left=0;bottom=1;right=0;points=[[0,0.5],[1,0.5]];portConstraint=eastwest;" vertex="1" parent="bYb3f7YGl_gzGOZ02LMp-580">
          <mxGeometry y="30" width="180" height="30" as="geometry" />
        </mxCell>
        <mxCell id="bYb3f7YGl_gzGOZ02LMp-582" value="PK" style="shape=partialRectangle;connectable=0;fillColor=none;top=0;left=0;bottom=0;right=0;fontStyle=1;overflow=hidden;" vertex="1" parent="bYb3f7YGl_gzGOZ02LMp-581">
          <mxGeometry width="30" height="30" as="geometry" />
        </mxCell>
        <mxCell id="bYb3f7YGl_gzGOZ02LMp-583" value="id" style="shape=partialRectangle;connectable=0;fillColor=none;top=0;left=0;bottom=0;right=0;align=left;spacingLeft=6;fontStyle=5;overflow=hidden;" vertex="1" parent="bYb3f7YGl_gzGOZ02LMp-581">
          <mxGeometry x="30" width="150" height="30" as="geometry" />
        </mxCell>
        <mxCell id="bYb3f7YGl_gzGOZ02LMp-584" value="" style="shape=partialRectangle;collapsible=0;dropTarget=0;pointerEvents=0;fillColor=none;top=0;left=0;bottom=0;right=0;points=[[0,0.5],[1,0.5]];portConstraint=eastwest;" vertex="1" parent="bYb3f7YGl_gzGOZ02LMp-580">
          <mxGeometry y="60" width="180" height="30" as="geometry" />
        </mxCell>
        <mxCell id="bYb3f7YGl_gzGOZ02LMp-585" value="" style="shape=partialRectangle;connectable=0;fillColor=none;top=0;left=0;bottom=0;right=0;editable=1;overflow=hidden;" vertex="1" parent="bYb3f7YGl_gzGOZ02LMp-584">
          <mxGeometry width="30" height="30" as="geometry" />
        </mxCell>
        <mxCell id="bYb3f7YGl_gzGOZ02LMp-586" value="name" style="shape=partialRectangle;connectable=0;fillColor=none;top=0;left=0;bottom=0;right=0;align=left;spacingLeft=6;overflow=hidden;" vertex="1" parent="bYb3f7YGl_gzGOZ02LMp-584">
          <mxGeometry x="30" width="150" height="30" as="geometry" />
        </mxCell>
        <mxCell id="bYb3f7YGl_gzGOZ02LMp-587" value="" style="shape=partialRectangle;collapsible=0;dropTarget=0;pointerEvents=0;fillColor=none;top=0;left=0;bottom=0;right=0;points=[[0,0.5],[1,0.5]];portConstraint=eastwest;" vertex="1" parent="bYb3f7YGl_gzGOZ02LMp-580">
          <mxGeometry y="90" width="180" height="30" as="geometry" />
        </mxCell>
        <mxCell id="bYb3f7YGl_gzGOZ02LMp-588" value="" style="shape=partialRectangle;connectable=0;fillColor=none;top=0;left=0;bottom=0;right=0;editable=1;overflow=hidden;" vertex="1" parent="bYb3f7YGl_gzGOZ02LMp-587">
          <mxGeometry width="30" height="30" as="geometry" />
        </mxCell>
        <mxCell id="bYb3f7YGl_gzGOZ02LMp-589" value="description" style="shape=partialRectangle;connectable=0;fillColor=none;top=0;left=0;bottom=0;right=0;align=left;spacingLeft=6;overflow=hidden;" vertex="1" parent="bYb3f7YGl_gzGOZ02LMp-587">
          <mxGeometry x="30" width="150" height="30" as="geometry" />
        </mxCell>
        <mxCell id="bYb3f7YGl_gzGOZ02LMp-590" value="" style="shape=partialRectangle;collapsible=0;dropTarget=0;pointerEvents=0;fillColor=none;top=0;left=0;bottom=0;right=0;points=[[0,0.5],[1,0.5]];portConstraint=eastwest;" vertex="1" parent="bYb3f7YGl_gzGOZ02LMp-580">
          <mxGeometry y="120" width="180" height="30" as="geometry" />
        </mxCell>
        <mxCell id="bYb3f7YGl_gzGOZ02LMp-591" value="" style="shape=partialRectangle;connectable=0;fillColor=none;top=0;left=0;bottom=0;right=0;editable=1;overflow=hidden;" vertex="1" parent="bYb3f7YGl_gzGOZ02LMp-590">
          <mxGeometry width="30" height="30" as="geometry" />
        </mxCell>
        <mxCell id="bYb3f7YGl_gzGOZ02LMp-592" value="short_description" style="shape=partialRectangle;connectable=0;fillColor=none;top=0;left=0;bottom=0;right=0;align=left;spacingLeft=6;overflow=hidden;" vertex="1" parent="bYb3f7YGl_gzGOZ02LMp-590">
          <mxGeometry x="30" width="150" height="30" as="geometry" />
        </mxCell>
        <mxCell id="bYb3f7YGl_gzGOZ02LMp-593" value="" style="shape=partialRectangle;collapsible=0;dropTarget=0;pointerEvents=0;fillColor=none;top=0;left=0;bottom=0;right=0;points=[[0,0.5],[1,0.5]];portConstraint=eastwest;" vertex="1" parent="bYb3f7YGl_gzGOZ02LMp-580">
          <mxGeometry y="150" width="180" height="30" as="geometry" />
        </mxCell>
        <mxCell id="bYb3f7YGl_gzGOZ02LMp-594" value="" style="shape=partialRectangle;connectable=0;fillColor=none;top=0;left=0;bottom=0;right=0;editable=1;overflow=hidden;" vertex="1" parent="bYb3f7YGl_gzGOZ02LMp-593">
          <mxGeometry width="30" height="30" as="geometry" />
        </mxCell>
        <mxCell id="bYb3f7YGl_gzGOZ02LMp-595" value="img" style="shape=partialRectangle;connectable=0;fillColor=none;top=0;left=0;bottom=0;right=0;align=left;spacingLeft=6;overflow=hidden;" vertex="1" parent="bYb3f7YGl_gzGOZ02LMp-593">
          <mxGeometry x="30" width="150" height="30" as="geometry" />
        </mxCell>
        <mxCell id="bYb3f7YGl_gzGOZ02LMp-596" value="" style="shape=partialRectangle;collapsible=0;dropTarget=0;pointerEvents=0;fillColor=none;top=0;left=0;bottom=0;right=0;points=[[0,0.5],[1,0.5]];portConstraint=eastwest;" vertex="1" parent="bYb3f7YGl_gzGOZ02LMp-580">
          <mxGeometry y="180" width="180" height="30" as="geometry" />
        </mxCell>
        <mxCell id="bYb3f7YGl_gzGOZ02LMp-597" value="" style="shape=partialRectangle;connectable=0;fillColor=none;top=0;left=0;bottom=0;right=0;editable=1;overflow=hidden;" vertex="1" parent="bYb3f7YGl_gzGOZ02LMp-596">
          <mxGeometry width="30" height="30" as="geometry" />
        </mxCell>
        <mxCell id="bYb3f7YGl_gzGOZ02LMp-598" value="view" style="shape=partialRectangle;connectable=0;fillColor=none;top=0;left=0;bottom=0;right=0;align=left;spacingLeft=6;overflow=hidden;" vertex="1" parent="bYb3f7YGl_gzGOZ02LMp-596">
          <mxGeometry x="30" width="150" height="30" as="geometry" />
        </mxCell>
        <mxCell id="bYb3f7YGl_gzGOZ02LMp-599" value="" style="shape=partialRectangle;collapsible=0;dropTarget=0;pointerEvents=0;fillColor=none;top=0;left=0;bottom=0;right=0;points=[[0,0.5],[1,0.5]];portConstraint=eastwest;" vertex="1" parent="bYb3f7YGl_gzGOZ02LMp-580">
          <mxGeometry y="210" width="180" height="30" as="geometry" />
        </mxCell>
        <mxCell id="bYb3f7YGl_gzGOZ02LMp-600" value="" style="shape=partialRectangle;connectable=0;fillColor=none;top=0;left=0;bottom=0;right=0;editable=1;overflow=hidden;" vertex="1" parent="bYb3f7YGl_gzGOZ02LMp-599">
          <mxGeometry width="30" height="30" as="geometry" />
        </mxCell>
        <mxCell id="bYb3f7YGl_gzGOZ02LMp-601" value="status" style="shape=partialRectangle;connectable=0;fillColor=none;top=0;left=0;bottom=0;right=0;align=left;spacingLeft=6;overflow=hidden;" vertex="1" parent="bYb3f7YGl_gzGOZ02LMp-599">
          <mxGeometry x="30" width="150" height="30" as="geometry" />
        </mxCell>
        <mxCell id="bYb3f7YGl_gzGOZ02LMp-602" value="" style="shape=partialRectangle;collapsible=0;dropTarget=0;pointerEvents=0;fillColor=none;top=0;left=0;bottom=0;right=0;points=[[0,0.5],[1,0.5]];portConstraint=eastwest;" vertex="1" parent="bYb3f7YGl_gzGOZ02LMp-580">
          <mxGeometry y="240" width="180" height="30" as="geometry" />
        </mxCell>
        <mxCell id="bYb3f7YGl_gzGOZ02LMp-603" value="" style="shape=partialRectangle;connectable=0;fillColor=none;top=0;left=0;bottom=0;right=0;editable=1;overflow=hidden;" vertex="1" parent="bYb3f7YGl_gzGOZ02LMp-602">
          <mxGeometry width="30" height="30" as="geometry" />
        </mxCell>
        <mxCell id="bYb3f7YGl_gzGOZ02LMp-604" value="user_id" style="shape=partialRectangle;connectable=0;fillColor=none;top=0;left=0;bottom=0;right=0;align=left;spacingLeft=6;overflow=hidden;" vertex="1" parent="bYb3f7YGl_gzGOZ02LMp-602">
          <mxGeometry x="30" width="150" height="30" as="geometry" />
        </mxCell>
        <mxCell id="bYb3f7YGl_gzGOZ02LMp-605" value="" style="shape=partialRectangle;collapsible=0;dropTarget=0;pointerEvents=0;fillColor=none;top=0;left=0;bottom=0;right=0;points=[[0,0.5],[1,0.5]];portConstraint=eastwest;" vertex="1" parent="bYb3f7YGl_gzGOZ02LMp-580">
          <mxGeometry y="270" width="180" height="30" as="geometry" />
        </mxCell>
        <mxCell id="bYb3f7YGl_gzGOZ02LMp-606" value="" style="shape=partialRectangle;connectable=0;fillColor=none;top=0;left=0;bottom=0;right=0;editable=1;overflow=hidden;" vertex="1" parent="bYb3f7YGl_gzGOZ02LMp-605">
          <mxGeometry width="30" height="30" as="geometry" />
        </mxCell>
        <mxCell id="bYb3f7YGl_gzGOZ02LMp-607" value="created_at" style="shape=partialRectangle;connectable=0;fillColor=none;top=0;left=0;bottom=0;right=0;align=left;spacingLeft=6;overflow=hidden;" vertex="1" parent="bYb3f7YGl_gzGOZ02LMp-605">
          <mxGeometry x="30" width="150" height="30" as="geometry" />
        </mxCell>
        <mxCell id="bYb3f7YGl_gzGOZ02LMp-608" value="" style="shape=partialRectangle;collapsible=0;dropTarget=0;pointerEvents=0;fillColor=none;top=0;left=0;bottom=0;right=0;points=[[0,0.5],[1,0.5]];portConstraint=eastwest;" vertex="1" parent="bYb3f7YGl_gzGOZ02LMp-580">
          <mxGeometry y="300" width="180" height="30" as="geometry" />
        </mxCell>
        <mxCell id="bYb3f7YGl_gzGOZ02LMp-609" value="" style="shape=partialRectangle;connectable=0;fillColor=none;top=0;left=0;bottom=0;right=0;editable=1;overflow=hidden;" vertex="1" parent="bYb3f7YGl_gzGOZ02LMp-608">
          <mxGeometry width="30" height="30" as="geometry" />
        </mxCell>
        <mxCell id="bYb3f7YGl_gzGOZ02LMp-610" value="updated_at" style="shape=partialRectangle;connectable=0;fillColor=none;top=0;left=0;bottom=0;right=0;align=left;spacingLeft=6;overflow=hidden;" vertex="1" parent="bYb3f7YGl_gzGOZ02LMp-608">
          <mxGeometry x="30" width="150" height="30" as="geometry" />
        </mxCell>
        <mxCell id="bYb3f7YGl_gzGOZ02LMp-611" value="" style="edgeStyle=entityRelationEdgeStyle;fontSize=12;html=1;endArrow=ERoneToMany;" edge="1" parent="1" source="bYb3f7YGl_gzGOZ02LMp-415" target="bYb3f7YGl_gzGOZ02LMp-440">
          <mxGeometry width="100" height="100" relative="1" as="geometry">
            <mxPoint x="490" y="1220" as="sourcePoint" />
            <mxPoint x="590" y="1120" as="targetPoint" />
          </mxGeometry>
        </mxCell>
        <mxCell id="bYb3f7YGl_gzGOZ02LMp-612" value="" style="edgeStyle=entityRelationEdgeStyle;fontSize=12;html=1;endArrow=ERoneToMany;" edge="1" parent="1" source="bYb3f7YGl_gzGOZ02LMp-462" target="bYb3f7YGl_gzGOZ02LMp-487">
          <mxGeometry width="100" height="100" relative="1" as="geometry">
            <mxPoint x="490" y="1380" as="sourcePoint" />
            <mxPoint x="590" y="1280" as="targetPoint" />
          </mxGeometry>
        </mxCell>
        <mxCell id="bYb3f7YGl_gzGOZ02LMp-613" value="" style="edgeStyle=entityRelationEdgeStyle;fontSize=12;html=1;endArrow=ERoneToMany;" edge="1" parent="1" source="bYb3f7YGl_gzGOZ02LMp-402" target="bYb3f7YGl_gzGOZ02LMp-392">
          <mxGeometry width="100" height="100" relative="1" as="geometry">
            <mxPoint x="490" y="750" as="sourcePoint" />
            <mxPoint x="590" y="650" as="targetPoint" />
          </mxGeometry>
        </mxCell>
        <mxCell id="bYb3f7YGl_gzGOZ02LMp-614" value="" style="edgeStyle=entityRelationEdgeStyle;fontSize=12;html=1;endArrow=ERoneToMany;" edge="1" parent="1" source="bYb3f7YGl_gzGOZ02LMp-311" target="bYb3f7YGl_gzGOZ02LMp-386">
          <mxGeometry width="100" height="100" relative="1" as="geometry">
            <mxPoint x="510" y="690" as="sourcePoint" />
            <mxPoint x="590" y="590" as="targetPoint" />
          </mxGeometry>
        </mxCell>
        <mxCell id="bYb3f7YGl_gzGOZ02LMp-616" value="" style="edgeStyle=entityRelationEdgeStyle;fontSize=12;html=1;endArrow=ERoneToMany;" edge="1" parent="1" source="bYb3f7YGl_gzGOZ02LMp-254" target="bYb3f7YGl_gzGOZ02LMp-235">
          <mxGeometry width="100" height="100" relative="1" as="geometry">
            <mxPoint x="490" y="320" as="sourcePoint" />
            <mxPoint x="590" y="220" as="targetPoint" />
          </mxGeometry>
        </mxCell>
        <mxCell id="bYb3f7YGl_gzGOZ02LMp-617" value="" style="edgeStyle=entityRelationEdgeStyle;fontSize=12;html=1;endArrow=ERmany;startArrow=ERmany;" edge="1" parent="1" source="bYb3f7YGl_gzGOZ02LMp-531" target="bYb3f7YGl_gzGOZ02LMp-468">
          <mxGeometry width="100" height="100" relative="1" as="geometry">
            <mxPoint x="490" y="530" as="sourcePoint" />
            <mxPoint x="590" y="430" as="targetPoint" />
          </mxGeometry>
        </mxCell>
        <mxCell id="bYb3f7YGl_gzGOZ02LMp-618" value="" style="edgeStyle=entityRelationEdgeStyle;fontSize=12;html=1;endArrow=ERmany;startArrow=ERmany;" edge="1" parent="1" source="bYb3f7YGl_gzGOZ02LMp-421" target="bYb3f7YGl_gzGOZ02LMp-509">
          <mxGeometry width="100" height="100" relative="1" as="geometry">
            <mxPoint x="490" y="10" as="sourcePoint" />
            <mxPoint x="590" y="-90" as="targetPoint" />
          </mxGeometry>
        </mxCell>
        <mxCell id="bYb3f7YGl_gzGOZ02LMp-619" value="" style="edgeStyle=entityRelationEdgeStyle;fontSize=12;html=1;endArrow=ERmandOne;startArrow=ERmandOne;" edge="1" parent="1" source="bYb3f7YGl_gzGOZ02LMp-254" target="bYb3f7YGl_gzGOZ02LMp-443">
          <mxGeometry width="100" height="100" relative="1" as="geometry">
            <mxPoint x="430" y="130" as="sourcePoint" />
            <mxPoint x="530" y="30" as="targetPoint" />
          </mxGeometry>
        </mxCell>
        <mxCell id="bYb3f7YGl_gzGOZ02LMp-620" value="" style="edgeStyle=entityRelationEdgeStyle;fontSize=12;html=1;endArrow=ERmandOne;startArrow=ERmandOne;" edge="1" parent="1" source="bYb3f7YGl_gzGOZ02LMp-490" target="bYb3f7YGl_gzGOZ02LMp-254">
          <mxGeometry width="100" height="100" relative="1" as="geometry">
            <mxPoint x="430" y="290" as="sourcePoint" />
            <mxPoint x="530" y="190" as="targetPoint" />
          </mxGeometry>
        </mxCell>
      </root>
    </mxGraphModel>
  </diagram>
</mxfile>
